# Blender 4.0.2
# www.blender.org
mtllib door3.mtl
o door4
v -3.030125 2.100078 -3.261146
v -3.030125 2.100078 -2.361146
v -3.030124 0.000078 -2.361146
v -3.030124 0.000078 -3.261146
v -3.030125 1.098937 -2.467302
v -3.030125 1.047291 -2.514190
v -3.030124 1.001219 -2.463442
v -3.030124 1.052865 -2.416554
v -3.036675 1.047291 -2.514190
v -3.036675 1.098937 -2.467302
v -3.036675 1.052865 -2.416554
v -3.036675 1.001219 -2.463442
v -3.036675 1.064522 -2.465640
v -3.036675 1.048953 -2.479775
v -3.036675 1.035634 -2.465104
v -3.036675 1.051203 -2.450969
v -3.048855 1.061743 -2.500502
v -3.048855 1.084453 -2.451643
v -3.048855 1.038412 -2.430243
v -3.048855 1.015702 -2.479102
v -3.088778 1.061743 -2.500502
v -3.088778 1.084453 -2.451643
v -3.088778 1.038412 -2.430243
v -3.088778 1.015702 -2.479102
v -2.985028 2.100078 -3.261146
v -2.985028 2.100078 -2.361146
v -2.985028 0.000078 -2.361146
v -2.985028 0.000078 -3.261146
v -2.985028 1.098937 -2.467302
v -2.985028 1.047291 -2.514190
v -2.985028 1.001219 -2.463442
v -2.985028 1.052865 -2.416554
v -2.978477 1.047291 -2.514190
v -2.978477 1.098937 -2.467302
v -2.978477 1.052865 -2.416554
v -2.978477 1.001219 -2.463442
v -2.978477 1.064522 -2.465640
v -2.978477 1.048953 -2.479775
v -2.978477 1.035634 -2.465104
v -2.978477 1.051203 -2.450969
v -2.966298 1.061743 -2.500502
v -2.966298 1.084453 -2.451643
v -2.966298 1.038412 -2.430243
v -2.966298 1.015702 -2.479102
v -2.926374 1.061743 -2.500502
v -2.926374 1.084453 -2.451643
v -2.926374 1.038412 -2.430243
v -2.926374 1.015702 -2.479102
vn -0.0000 1.0000 -0.0000
vn -0.0000 -0.7404 -0.6722
vn -0.0000 -0.0000 -1.0000
vn -0.0000 -0.0000 1.0000
vn -1.0000 -0.0000 -0.0000
vn 0.7907 0.5232 -0.3179
vn -0.0000 0.6722 -0.7404
vn -0.0000 -0.6722 0.7404
vn -0.0000 0.7404 0.6722
vn -0.0000 -0.9068 0.4215
vn 0.7907 -0.5232 0.3179
vn 0.8078 0.3061 0.5037
vn 0.8078 -0.3061 -0.5037
vn -0.0000 0.4215 0.9068
vn -0.0000 -0.4215 -0.9068
vn -0.0000 0.9068 -0.4215
vn 1.0000 -0.0000 -0.0000
vn -0.7907 0.5232 -0.3179
vn -0.7907 -0.5232 0.3179
vn -0.8078 0.3061 0.5037
vn -0.8078 -0.3061 -0.5037
vn -0.0000 -1.0000 -0.0000
vt 0.000000 0.000000
vt 0.000000 1.000000
vt 0.139983 0.673373
vt 0.860017 0.673373
vt 1.000000 1.000000
vt 1.000000 0.000000
vt 0.139983 0.326627
vt 0.860017 0.326627
vt 0.395922 0.447736
vt 0.395922 0.552264
vt 0.604078 0.552264
vt 0.604078 0.447736
s 0
f 2/1/1 26/1/1 25/2/1 1/2/1
f 6/3/2 7/4/2 12/4/2 9/3/2
f 1/2/3 25/2/3 28/5/3 4/5/3
f 3/6/4 27/6/4 26/1/4 2/1/4
f 2/1/5 1/2/5 6/3/5 5/7/5
f 1/2/5 4/5/5 7/4/5 6/3/5
f 4/5/5 3/6/5 8/8/5 7/4/5
f 3/6/5 2/1/5 5/7/5 8/8/5
f 13/9/6 14/10/6 17/10/6 18/9/6
f 5/7/7 6/3/7 9/3/7 10/7/7
f 7/4/8 8/8/8 11/8/8 12/4/8
f 8/8/9 5/7/9 10/7/9 11/8/9
f 10/7/5 9/3/5 14/10/5 13/9/5
f 9/3/5 12/4/5 15/11/5 14/10/5
f 12/4/5 11/8/5 16/12/5 15/11/5
f 11/8/5 10/7/5 13/9/5 16/12/5
f 20/11/10 19/12/10 23/12/10 24/11/10
f 15/11/11 16/12/11 19/12/11 20/11/11
f 16/12/12 13/9/12 18/9/12 19/12/12
f 14/10/13 15/11/13 20/11/13 17/10/13
f 22/9/5 21/10/5 24/11/5 23/12/5
f 19/12/14 18/9/14 22/9/14 23/12/14
f 17/10/15 20/11/15 24/11/15 21/10/15
f 18/9/16 17/10/16 21/10/16 22/9/16
f 30/3/2 33/3/2 36/4/2 31/4/2
f 26/1/17 29/7/17 30/3/17 25/2/17
f 25/2/17 30/3/17 31/4/17 28/5/17
f 28/5/17 31/4/17 32/8/17 27/6/17
f 27/6/17 32/8/17 29/7/17 26/1/17
f 37/9/18 42/9/18 41/10/18 38/10/18
f 29/7/7 34/7/7 33/3/7 30/3/7
f 31/4/8 36/4/8 35/8/8 32/8/8
f 32/8/9 35/8/9 34/7/9 29/7/9
f 34/7/17 37/9/17 38/10/17 33/3/17
f 33/3/17 38/10/17 39/11/17 36/4/17
f 36/4/17 39/11/17 40/12/17 35/8/17
f 35/8/17 40/12/17 37/9/17 34/7/17
f 44/11/10 48/11/10 47/12/10 43/12/10
f 39/11/19 44/11/19 43/12/19 40/12/19
f 40/12/20 43/12/20 42/9/20 37/9/20
f 38/10/21 41/10/21 44/11/21 39/11/21
f 46/9/17 47/12/17 48/11/17 45/10/17
f 43/12/14 47/12/14 46/9/14 42/9/14
f 41/10/15 45/10/15 48/11/15 44/11/15
f 42/9/16 46/9/16 45/10/16 41/10/16
f 4/5/22 28/5/22 27/6/22 3/6/22
