# Blender 4.0.2
# www.blender.org
mtllib lamp_post1obj.mtl
o Cylinder.044
v 0.000000 0.766184 -6.064449
v 0.000000 2.703252 -6.032006
v 0.046529 0.766184 -6.042042
v 0.021164 2.703252 -6.021814
v 0.058020 0.766184 -5.991693
v 0.026391 2.703252 -5.998913
v 0.025822 0.766184 -5.951317
v 0.011745 2.703252 -5.980547
v -0.025822 0.766184 -5.951317
v -0.011745 2.703252 -5.980547
v -0.058020 0.766184 -5.991693
v -0.026391 2.703252 -5.998913
v -0.046529 0.766184 -6.042042
v -0.021164 2.703252 -6.021814
v -0.000000 0.702360 -6.108032
v 0.080603 0.702360 -6.069215
v 0.100511 0.702360 -5.981995
v 0.044732 0.702360 -5.912050
v -0.044732 0.702360 -5.912050
v -0.100511 0.702360 -5.981995
v -0.080603 0.702360 -6.069215
v 0.000000 0.068780 -6.144671
v 0.109250 0.068780 -6.092060
v 0.136232 0.068780 -5.973842
v 0.060629 0.068780 -5.879038
v -0.060629 0.068780 -5.879038
v -0.136232 0.068780 -5.973842
v -0.109250 0.068780 -6.092060
v 0.000000 0.014912 -6.144671
v 0.109250 0.014912 -6.092060
v 0.136232 0.014912 -5.973842
v 0.060629 0.014912 -5.879038
v -0.060629 0.014912 -5.879038
v -0.136232 0.014912 -5.973842
v -0.109250 0.014912 -6.092060
v 0.000000 0.014912 -6.184564
v 0.140439 0.014912 -6.116932
v 0.175125 0.014912 -5.964965
v 0.077938 0.014912 -5.843096
v -0.077938 0.014912 -5.843096
v -0.175125 0.014912 -5.964965
v -0.140439 0.014912 -6.116932
v 0.000000 0.000671 -6.184564
v 0.140439 0.000671 -6.116932
v 0.175125 0.000671 -5.964965
v 0.077938 0.000671 -5.843096
v -0.077938 0.000671 -5.843096
v -0.175125 0.000671 -5.964965
v -0.140439 0.000671 -6.116932
v -0.101508 0.726818 -5.981768
v -0.045175 0.726818 -5.911128
v 0.081403 0.726818 -6.069853
v -0.000000 0.726818 -6.109055
v 0.045175 0.726818 -5.911128
v 0.101508 0.726818 -5.981768
v -0.081403 0.726818 -6.069853
v 0.000000 1.651402 -6.047203
v 0.033045 1.651402 -6.031289
v 0.041207 1.651402 -5.995531
v 0.018339 1.651402 -5.966856
v -0.018339 1.651402 -5.966856
v -0.041207 1.651402 -5.995531
v -0.033045 1.651402 -6.031289
v -0.000000 1.700678 -6.078074
v 0.057181 1.700678 -6.050537
v 0.071304 1.700678 -5.988661
v 0.031733 1.700678 -5.939041
v -0.031733 1.700678 -5.939041
v -0.071304 1.700678 -5.988661
v -0.057181 1.700678 -6.050537
v 0.000000 1.723492 -6.047203
v 0.033045 1.723492 -6.031289
v 0.041207 1.723492 -5.995531
v 0.018339 1.723492 -5.966856
v -0.018339 1.723492 -5.966856
v -0.041207 1.723492 -5.995531
v -0.033045 1.723492 -6.031289
v 0.030528 2.717129 -6.029282
v 0.000000 2.717129 -6.043983
v 0.038068 2.717129 -5.996248
v 0.016942 2.717129 -5.969756
v -0.016942 2.717129 -5.969756
v -0.038068 2.717129 -5.996248
v -0.030528 2.717129 -6.029282
v 0.030528 2.764511 -6.029282
v 0.000000 2.764511 -6.043983
v 0.038068 2.764511 -5.996248
v 0.016942 2.764511 -5.969756
v -0.016942 2.764511 -5.969756
v -0.038068 2.764511 -5.996248
v -0.030528 2.764511 -6.029282
v 0.012853 2.772903 -6.015187
v 0.000000 2.772903 -6.021376
v 0.016028 2.772903 -6.001278
v 0.007133 2.772903 -5.990125
v -0.007133 2.772903 -5.990125
v -0.016028 2.772903 -6.001278
v -0.012853 2.772903 -6.015187
v 0.012853 2.784135 -6.015187
v 0.000000 2.784135 -6.021376
v 0.016028 2.784135 -6.001278
v 0.007133 2.784135 -5.990125
v -0.007133 2.784135 -5.990125
v -0.016028 2.784135 -6.001278
v -0.012853 2.784135 -6.015187
v 0.084553 2.825574 -6.072363
v 0.000000 2.825574 -6.113081
v 0.105435 2.825574 -5.980869
v 0.046923 2.825574 -5.907497
v -0.046923 2.825574 -5.907497
v -0.105435 2.825574 -5.980869
v -0.084552 2.825574 -6.072363
v 0.145710 3.105537 -6.121133
v 0.000000 3.105537 -6.191303
v 0.181697 3.105537 -5.963463
v 0.080863 3.105537 -5.837021
v -0.080863 3.105537 -5.837021
v -0.181697 3.105537 -5.963463
v -0.145709 3.105537 -6.121133
v 0.167342 3.123578 -6.138385
v 0.000000 3.123578 -6.218972
v 0.208672 3.123578 -5.957306
v 0.092868 3.123578 -5.812092
v -0.092868 3.123578 -5.812092
v -0.208672 3.123578 -5.957306
v -0.167342 3.123578 -6.138385
v 0.167342 3.144394 -6.138385
v 0.000000 3.144394 -6.218972
v 0.208672 3.144394 -5.957306
v 0.092868 3.144394 -5.812092
v -0.092868 3.144394 -5.812092
v -0.208672 3.144394 -5.957306
v -0.167342 3.144394 -6.138385
v 0.017054 3.281779 -6.018534
v 0.000000 3.281779 -6.026747
v 0.021266 3.281779 -6.000081
v 0.009464 3.281779 -5.985281
v -0.009464 3.281779 -5.985281
v -0.021266 3.281779 -6.000081
v -0.017054 3.281779 -6.018534
v 0.000000 3.327241 -6.004934
vn 0.4338 0.0140 -0.9009
vn 0.9748 0.0140 -0.2225
vn 0.7818 0.0140 0.6234
vn -0.0000 0.0140 0.9999
vn -0.7818 0.0140 0.6234
vn -0.0000 -0.6139 0.7894
vn -0.9748 0.0140 -0.2225
vn -0.4338 0.0140 -0.9009
vn -0.7813 -0.0377 0.6230
vn -0.9736 0.0520 -0.2222
vn 0.4336 -0.0377 -0.9003
vn 0.7813 -0.0377 0.6230
vn -0.9742 -0.0377 -0.2224
vn -0.0000 -0.0377 0.9993
vn -0.4336 -0.0377 -0.9003
vn 0.9742 -0.0377 -0.2224
vn -0.4339 -0.0000 -0.9010
vn -0.0000 0.0520 0.9986
vn 0.9736 0.0520 -0.2222
vn -0.4333 0.0520 -0.8997
vn -0.7808 0.0520 0.6226
vn 0.7808 0.0520 0.6226
vn 0.4333 0.0520 -0.8997
vn -0.0000 1.0000 -0.0000
vn -0.7818 -0.0000 0.6235
vn 0.7818 -0.0000 0.6235
vn 0.4339 -0.0000 -0.9010
vn -0.9749 -0.0000 -0.2225
vn -0.0000 -0.0000 1.0000
vn 0.9749 -0.0000 -0.2225
vn 0.6822 0.7144 -0.1557
vn -0.3036 0.7144 -0.6305
vn -0.0000 0.7144 0.6998
vn -0.6822 0.7144 -0.1557
vn 0.5471 0.7144 0.4363
vn 0.3036 0.7144 -0.6305
vn -0.5471 0.7144 0.4363
vn -0.4338 0.0176 -0.9008
vn -0.9748 0.0176 -0.2225
vn -0.7817 0.0176 0.6234
vn -0.0000 0.0176 0.9998
vn 0.7817 0.0176 0.6234
vn 0.9748 0.0176 -0.2225
vn 0.4338 0.0176 -0.9008
vn -0.3778 -0.4916 -0.7846
vn -0.8490 -0.4916 -0.1938
vn -0.6809 -0.4916 0.5430
vn -0.0000 -0.4916 0.8708
vn 0.6809 -0.4916 0.5430
vn 0.8490 -0.4916 -0.1938
vn 0.3778 -0.4916 -0.7846
vn -0.2752 0.7732 -0.5714
vn -0.6183 0.7732 -0.1411
vn -0.4958 0.7732 0.3954
vn -0.0000 0.7732 0.6342
vn 0.4958 0.7732 0.3954
vn 0.6183 0.7732 -0.1411
vn 0.2752 0.7732 -0.5714
vn -0.3425 -0.6139 -0.7112
vn 0.7696 -0.6139 -0.1757
vn -0.6172 -0.6139 0.4922
vn 0.3425 -0.6139 -0.7112
vn 0.6172 -0.6139 0.4922
vn -0.7696 -0.6139 -0.1757
vn -0.1653 0.9246 -0.3432
vn -0.2978 0.9246 0.2375
vn 0.2978 0.9246 0.2375
vn 0.1653 0.9246 -0.3432
vn -0.3714 0.9246 -0.0848
vn -0.0000 0.9246 0.3810
vn 0.3714 0.9246 -0.0848
vn -0.4371 -0.8939 -0.0998
vn -0.7582 -0.2441 0.6046
vn -0.0000 -0.8939 0.4483
vn 0.4371 -0.8939 -0.0998
vn -0.1945 -0.8939 -0.4039
vn -0.3505 -0.8939 0.2795
vn 0.3505 -0.8939 0.2795
vn 0.1945 -0.8939 -0.4039
vn -0.5716 -0.8101 -0.1305
vn 0.7582 -0.2441 0.6046
vn 0.4208 -0.2441 -0.8737
vn -0.9454 -0.2441 -0.2158
vn -0.0000 -0.2441 0.9697
vn 0.9454 -0.2441 -0.2158
vn -0.4208 -0.2441 -0.8737
vn -0.0000 -0.8101 0.5863
vn 0.5716 -0.8101 -0.1305
vn -0.2544 -0.8101 -0.5282
vn -0.4584 -0.8101 0.3655
vn 0.4584 -0.8101 0.3655
vn 0.2544 -0.8101 -0.5282
vn -0.2696 0.7834 -0.5599
vn -0.8949 0.3968 -0.2043
vn -0.4859 0.7834 0.3875
vn 0.4859 0.7834 0.3875
vn 0.2696 0.7834 -0.5599
vn -0.6059 0.7834 -0.1383
vn -0.0000 0.7834 0.6215
vn 0.6059 0.7834 -0.1383
vn -0.0000 0.3968 0.9179
vn 0.8949 0.3968 -0.2043
vn -0.3983 0.3968 -0.8270
vn -0.7177 0.3968 0.5723
vn 0.7177 0.3968 0.5723
vn 0.3983 0.3968 -0.8270
vt 1.000000 0.747956
vt 1.000000 1.000000
vt 0.857143 1.000000
vt 0.857143 0.747955
vt 0.714286 1.000000
vt 0.714286 0.747956
vt 0.571429 1.000000
vt 0.571429 0.747956
vt 0.428571 1.000000
vt 0.428571 0.747956
vt 0.285714 1.000000
vt 0.285714 0.747956
vt 0.142857 1.000000
vt 0.142857 0.747956
vt 0.000000 1.000000
vt 0.000000 0.747956
vt 0.428571 0.500000
vt 0.285714 0.500000
vt 0.142857 0.500000
vt 1.000000 0.500000
vt 0.857143 0.500000
vt 0.857143 0.500000
vt 0.714286 0.500000
vt 0.571429 0.500000
vt 0.571429 0.500000
vt 0.000000 0.500000
vt 0.142857 0.727403
vt 0.000000 0.727403
vt 0.285714 0.727403
vt 0.428571 0.727403
vt 0.571429 0.727403
vt 0.714286 0.727403
vt 0.857143 0.727403
vt 1.000000 0.727403
vt 0.142857 0.741451
vt 0.000000 0.741451
vt 0.285714 0.741452
vt 0.428571 0.741452
vt 0.571429 0.741452
vt 0.714286 0.741452
vt 0.857143 0.741451
vt 1.000000 0.741452
s 0
f 71/1/1 2/2/1 4/3/1 72/4/1
f 72/4/2 4/3/2 6/5/2 73/6/2
f 73/6/3 6/5/3 8/7/3 74/8/3
f 74/8/4 8/7/4 10/9/4 75/10/4
f 75/10/5 10/9/5 12/11/5 76/12/5
f 10/9/6 8/7/6 81/7/6 82/9/6
f 76/12/7 12/11/7 14/13/7 77/14/7
f 77/14/8 14/13/8 2/15/8 71/16/8
f 51/17/9 50/18/9 20/18/9 19/17/9
f 20/18/10 21/19/10 28/19/10 27/18/10
f 53/20/11 52/21/11 16/22/11 15/20/11
f 55/23/12 54/24/12 18/25/12 17/23/12
f 50/18/13 56/19/13 21/19/13 20/18/13
f 54/24/14 51/17/14 19/17/14 18/25/14
f 56/19/15 53/26/15 15/26/15 21/19/15
f 52/21/16 55/23/16 17/23/16 16/22/16
f 28/19/17 22/26/17 29/26/17 35/19/17
f 18/25/18 19/17/18 26/17/18 25/25/18
f 16/22/19 17/23/19 24/23/19 23/22/19
f 21/19/20 15/26/20 22/26/20 28/19/20
f 19/17/21 20/18/21 27/18/21 26/17/21
f 17/23/22 18/25/22 25/25/22 24/23/22
f 15/20/23 16/22/23 23/22/23 22/20/23
f 33/17/24 34/18/24 41/18/24 40/17/24
f 26/17/25 27/18/25 34/18/25 33/17/25
f 24/23/26 25/25/26 32/25/26 31/23/26
f 22/20/27 23/22/27 30/22/27 29/20/27
f 27/18/28 28/19/28 35/19/28 34/18/28
f 25/25/29 26/17/29 33/17/29 32/25/29
f 23/22/30 24/23/30 31/23/30 30/22/30
f 37/22/30 38/23/30 45/23/30 44/22/30
f 31/23/24 32/25/24 39/25/24 38/23/24
f 29/20/24 30/22/24 37/22/24 36/20/24
f 34/18/24 35/19/24 42/19/24 41/18/24
f 32/25/24 33/17/24 40/17/24 39/25/24
f 30/22/24 31/23/24 38/23/24 37/22/24
f 35/19/24 29/26/24 36/26/24 42/19/24
f 42/19/17 36/26/17 43/26/17 49/19/17
f 40/17/25 41/18/25 48/18/25 47/17/25
f 38/23/26 39/25/26 46/25/26 45/23/26
f 36/20/27 37/22/27 44/22/27 43/20/27
f 41/18/28 42/19/28 49/19/28 48/18/28
f 39/25/29 40/17/29 47/17/29 46/25/29
f 3/22/31 5/23/31 55/23/31 52/21/31
f 13/19/32 1/26/32 53/26/32 56/19/32
f 7/25/33 9/17/33 51/17/33 54/24/33
f 11/18/34 13/19/34 56/19/34 50/18/34
f 5/23/35 7/25/35 54/24/35 55/23/35
f 1/20/36 3/22/36 52/21/36 53/20/36
f 9/17/37 11/18/37 50/18/37 51/17/37
f 13/19/38 63/27/38 57/28/38 1/26/38
f 11/18/39 62/29/39 63/27/39 13/19/39
f 9/17/40 61/30/40 62/29/40 11/18/40
f 7/25/41 60/31/41 61/30/41 9/17/41
f 5/23/42 59/32/42 60/31/42 7/25/42
f 3/22/43 58/33/43 59/32/43 5/23/43
f 1/20/44 57/34/44 58/33/44 3/22/44
f 63/27/45 70/35/45 64/36/45 57/28/45
f 62/29/46 69/37/46 70/35/46 63/27/46
f 61/30/47 68/38/47 69/37/47 62/29/47
f 60/31/48 67/39/48 68/38/48 61/30/48
f 59/32/49 66/40/49 67/39/49 60/31/49
f 58/33/50 65/41/50 66/40/50 59/32/50
f 57/34/51 64/42/51 65/41/51 58/33/51
f 70/35/52 77/14/52 71/16/52 64/36/52
f 69/37/53 76/12/53 77/14/53 70/35/53
f 68/38/54 75/10/54 76/12/54 69/37/54
f 67/39/55 74/8/55 75/10/55 68/38/55
f 66/40/56 73/6/56 74/8/56 67/39/56
f 65/41/57 72/4/57 73/6/57 66/40/57
f 64/42/58 71/1/58 72/4/58 65/41/58
f 78/3/27 79/2/27 86/2/27 85/3/27
f 2/15/59 14/13/59 84/13/59 79/15/59
f 6/5/60 4/3/60 78/3/60 80/5/60
f 12/11/61 10/9/61 82/9/61 83/11/61
f 4/3/62 2/2/62 79/2/62 78/3/62
f 8/7/63 6/5/63 80/5/63 81/7/63
f 14/13/64 12/11/64 83/11/64 84/13/64
f 86/15/65 91/13/65 98/13/65 93/15/65
f 84/13/28 83/11/28 90/11/28 91/13/28
f 82/9/29 81/7/29 88/7/29 89/9/29
f 80/5/30 78/3/30 85/3/30 87/5/30
f 79/15/17 84/13/17 91/13/17 86/15/17
f 83/11/25 82/9/25 89/9/25 90/11/25
f 81/7/26 80/5/26 87/5/26 88/7/26
f 93/15/17 98/13/17 105/13/17 100/15/17
f 90/11/66 89/9/66 96/9/66 97/11/66
f 88/7/67 87/5/67 94/5/67 95/7/67
f 85/3/68 86/2/68 93/2/68 92/3/68
f 91/13/69 90/11/69 97/11/69 98/13/69
f 89/9/70 88/7/70 95/7/70 96/9/70
f 87/5/71 85/3/71 92/3/71 94/5/71
f 105/13/72 104/11/72 111/11/72 112/13/72
f 97/11/25 96/9/25 103/9/25 104/11/25
f 95/7/26 94/5/26 101/5/26 102/7/26
f 92/3/27 93/2/27 100/2/27 99/3/27
f 98/13/28 97/11/28 104/11/28 105/13/28
f 96/9/29 95/7/29 102/7/29 103/9/29
f 94/5/30 92/3/30 99/3/30 101/5/30
f 111/11/73 110/9/73 117/9/73 118/11/73
f 103/9/74 102/7/74 109/7/74 110/9/74
f 101/5/75 99/3/75 106/3/75 108/5/75
f 100/15/76 105/13/76 112/13/76 107/15/76
f 104/11/77 103/9/77 110/9/77 111/11/77
f 102/7/78 101/5/78 108/5/78 109/7/78
f 99/3/79 100/2/79 107/2/79 106/3/79
f 119/13/80 118/11/80 125/11/80 126/13/80
f 109/7/81 108/5/81 115/5/81 116/7/81
f 106/3/82 107/2/82 114/2/82 113/3/82
f 112/13/83 111/11/83 118/11/83 119/13/83
f 110/9/84 109/7/84 116/7/84 117/9/84
f 108/5/85 106/3/85 113/3/85 115/5/85
f 107/15/86 112/13/86 119/13/86 114/15/86
f 123/7/26 122/5/26 129/5/26 130/7/26
f 117/9/87 116/7/87 123/7/87 124/9/87
f 115/5/88 113/3/88 120/3/88 122/5/88
f 114/15/89 119/13/89 126/13/89 121/15/89
f 118/11/90 117/9/90 124/9/90 125/11/90
f 116/7/91 115/5/91 122/5/91 123/7/91
f 113/3/92 114/2/92 121/2/92 120/3/92
f 128/15/93 133/13/93 140/13/93 135/15/93
f 120/3/27 121/2/27 128/2/27 127/3/27
f 126/13/28 125/11/28 132/11/28 133/13/28
f 124/9/29 123/7/29 130/7/29 131/9/29
f 122/5/30 120/3/30 127/3/30 129/5/30
f 121/15/17 126/13/17 133/13/17 128/15/17
f 125/11/25 124/9/25 131/9/25 132/11/25
f 140/13/94 139/11/94 141/13/94
f 132/11/95 131/9/95 138/9/95 139/11/95
f 130/7/96 129/5/96 136/5/96 137/7/96
f 127/3/97 128/2/97 135/2/97 134/3/97
f 133/13/98 132/11/98 139/11/98 140/13/98
f 131/9/99 130/7/99 137/7/99 138/9/99
f 129/5/100 127/3/100 134/3/100 136/5/100
f 138/9/101 137/7/101 141/9/101
f 136/5/102 134/3/102 141/5/102
f 135/15/103 140/13/103 141/15/103
f 139/11/104 138/9/104 141/11/104
f 137/7/105 136/5/105 141/7/105
f 134/3/106 135/2/106 141/3/106
