# Blender 4.0.2
# www.blender.org
mtllib lamp_post2.mtl
o Cylinder.045
v 0.000000 0.766184 -7.955093
v 0.046529 0.766184 -7.932686
v 0.058020 0.766184 -7.882338
v 0.025822 0.766184 -7.841961
v -0.025822 0.766184 -7.841961
v -0.058020 0.766184 -7.882338
v -0.046529 0.766184 -7.932686
v -0.000000 0.702360 -7.998676
v 0.080603 0.702360 -7.959859
v 0.100511 0.702360 -7.872639
v 0.044732 0.702360 -7.802694
v -0.044732 0.702360 -7.802694
v -0.100511 0.702360 -7.872639
v -0.080603 0.702360 -7.959859
v 0.000000 0.068780 -8.035316
v 0.109250 0.068780 -7.982704
v 0.136232 0.068780 -7.864486
v 0.060629 0.068780 -7.769682
v -0.060629 0.068780 -7.769682
v -0.136232 0.068780 -7.864486
v -0.109250 0.068780 -7.982704
v 0.000000 0.014912 -8.035316
v 0.109250 0.014912 -7.982704
v 0.136232 0.014912 -7.864486
v 0.060629 0.014912 -7.769682
v -0.060629 0.014912 -7.769682
v -0.136232 0.014912 -7.864486
v -0.109250 0.014912 -7.982704
v 0.000000 0.014912 -8.075209
v 0.140439 0.014912 -8.007576
v 0.175125 0.014912 -7.855609
v 0.077938 0.014912 -7.733740
v -0.077938 0.014912 -7.733740
v -0.175125 0.014912 -7.855609
v -0.140439 0.014912 -8.007576
v 0.000000 0.000671 -8.075209
v 0.140439 0.000671 -8.007576
v 0.175125 0.000671 -7.855609
v 0.077938 0.000671 -7.733740
v -0.077938 0.000671 -7.733740
v -0.175125 0.000671 -7.855609
v -0.140439 0.000671 -8.007576
v -0.101508 0.726818 -7.872412
v -0.045175 0.726818 -7.801772
v 0.081403 0.726818 -7.960497
v -0.000000 0.726818 -7.999699
v 0.045175 0.726818 -7.801772
v 0.101508 0.726818 -7.872412
v -0.081403 0.726818 -7.960497
v 0.000000 1.531503 -7.937847
v 0.033045 1.531503 -7.921933
v 0.041207 1.531503 -7.886175
v 0.018339 1.531503 -7.857500
v -0.018339 1.531503 -7.857500
v -0.041207 1.531503 -7.886175
v -0.033045 1.531503 -7.921933
v -0.000000 1.700678 -7.968718
v 0.057181 1.700678 -7.941181
v 0.071304 1.700678 -7.879305
v 0.031733 1.700678 -7.829685
v -0.031733 1.700678 -7.829685
v -0.071304 1.700678 -7.879305
v -0.057181 1.700678 -7.941181
v 0.000000 1.723492 -7.937847
v 0.033045 1.723492 -7.921933
v 0.041207 1.723492 -7.886175
v 0.018339 1.723492 -7.857500
v -0.018339 1.723492 -7.857500
v -0.041207 1.723492 -7.886175
v -0.033045 1.723492 -7.921933
v 0.000000 3.389800 -7.921659
v 0.020388 3.389800 -7.911840
v 0.025424 3.389800 -7.889778
v 0.011315 3.389800 -7.872086
v -0.011315 3.389800 -7.872086
v -0.025424 3.389800 -7.889778
v -0.020388 3.389800 -7.911840
v -0.020388 1.745183 -7.911840
v 0.000000 1.745183 -7.921659
v 0.020388 1.745183 -7.911840
v 0.025424 1.745183 -7.889778
v 0.011315 1.745183 -7.872086
v -0.011315 1.745183 -7.872086
v -0.025424 1.745183 -7.889778
v -0.020388 3.319989 -7.911840
v 0.020388 3.319989 -7.911840
v 0.011315 3.319989 -7.872086
v -0.025424 3.319989 -7.889778
v 0.000000 3.319989 -7.921659
v 0.025424 3.319989 -7.889778
v -0.011315 3.319989 -7.872086
v 0.000000 2.899974 -7.921659
v 0.025424 2.899974 -7.889778
v -0.011315 2.899974 -7.872086
v -0.025424 2.899974 -7.889778
v 0.011315 2.899974 -7.872086
v 0.020388 2.899974 -7.911840
v -0.020388 2.899974 -7.911840
v -0.025424 3.299875 -7.889778
v 0.011315 3.299875 -7.872086
v 0.020388 3.299875 -7.911840
v -0.020388 3.299875 -7.911840
v 0.000000 3.299875 -7.921659
v 0.025424 3.299875 -7.889778
v -0.011315 3.299875 -7.872086
v 0.000000 2.919946 -7.921659
v 0.025424 2.919946 -7.889778
v -0.011315 2.919946 -7.872086
v -0.025424 2.919946 -7.889778
v 0.011315 2.919946 -7.872086
v 0.020388 2.919946 -7.911840
v -0.020388 2.919946 -7.911840
v 0.000000 2.920042 -7.969074
v 0.000000 3.386477 -7.969074
v 0.020388 2.920042 -7.978666
v -0.020388 2.920042 -7.978666
v 0.025424 3.386477 -8.000729
v -0.011315 3.386477 -8.018420
v -0.020388 3.386477 -7.978666
v 0.020388 3.386477 -7.978666
v -0.025424 3.386477 -8.000729
v 0.011315 3.386477 -8.018420
v -0.025424 2.920042 -8.000729
v 0.011315 2.920042 -8.018420
v 0.025424 2.920042 -8.000729
v -0.011315 2.920042 -8.018420
v 0.000000 2.848486 -7.969074
v 0.020388 2.848486 -7.978666
v -0.020388 2.848486 -7.978666
v -0.025424 2.848486 -8.000729
v 0.011315 2.848486 -8.018420
v 0.025424 2.848486 -8.000729
v -0.011315 2.848486 -8.018420
v 0.011315 2.899957 -8.018420
v 0.025424 2.899957 -8.000729
v 0.020388 2.899957 -7.978666
v 0.000000 2.899957 -7.969074
v -0.020388 2.899957 -7.978666
v -0.011315 2.899957 -8.018420
v -0.025424 2.899957 -8.000729
v 0.025424 3.300005 -8.000729
v -0.011315 3.300005 -8.018420
v -0.025424 3.300005 -8.000729
v 0.011315 3.300005 -8.018420
v 0.020388 3.300005 -7.978666
v 0.000000 3.300005 -7.969074
v -0.020388 3.300005 -7.978666
v 0.025424 3.319893 -8.000729
v -0.011315 3.319893 -8.018420
v 0.020388 3.319893 -7.978666
v -0.020388 3.319893 -7.978666
v -0.025424 3.319893 -8.000729
v 0.011315 3.319893 -8.018420
v 0.000000 3.319893 -7.969074
v 0.000000 3.817073 -8.279160
v 0.033991 3.783090 -8.279796
v -0.015127 3.759440 -8.280237
v -0.027259 3.812581 -8.279243
v 0.027259 3.812581 -8.279243
v -0.033991 3.783090 -8.279796
v 0.015127 3.759440 -8.280237
v 0.000000 3.426160 -8.614248
v 0.025424 3.426160 -8.582594
v -0.011315 3.426160 -8.564901
v -0.020388 3.426160 -8.604655
v 0.020388 3.426160 -8.604655
v -0.025424 3.426160 -8.582594
v 0.011315 3.426160 -8.564901
v 0.017573 3.532216 -8.023933
v -0.017573 3.532216 -8.023933
v 0.000000 3.554711 -7.974630
v 0.031665 3.550338 -7.984214
v 0.039486 3.540281 -8.006256
v -0.031665 3.550338 -7.984214
v -0.039486 3.540281 -8.006256
v -0.018775 3.566928 -8.564713
v -0.042187 3.579440 -8.581278
v -0.033831 3.595043 -8.601933
v 0.000000 3.601827 -8.610914
v 0.018775 3.566928 -8.564713
v 0.033831 3.595043 -8.601933
v 0.042187 3.579440 -8.581278
v -0.015850 3.687815 -8.121647
v 0.028560 3.721523 -8.094682
v 0.035614 3.702816 -8.109646
v 0.015850 3.687815 -8.121647
v 0.000000 3.729656 -8.088175
v -0.028560 3.721523 -8.094682
v -0.035614 3.702816 -8.109646
v -0.016295 3.707821 -8.455257
v -0.029362 3.742348 -8.483139
v 0.016295 3.707821 -8.455257
v 0.029362 3.742348 -8.483139
v -0.036614 3.723187 -8.467666
v 0.000000 3.750679 -8.489866
v 0.036614 3.723187 -8.467666
v 0.012853 2.785078 -8.598949
v 0.000000 2.785078 -8.605140
v 0.016028 2.785078 -8.585041
v 0.007133 2.785078 -8.573889
v -0.007133 2.785078 -8.573889
v -0.016027 2.785078 -8.585041
v -0.012853 2.785078 -8.598949
v 0.084553 2.826516 -8.656126
v -0.000000 2.826516 -8.696844
v 0.105435 2.826516 -8.564632
v 0.046923 2.826516 -8.491261
v -0.046923 2.826516 -8.491261
v -0.105435 2.826516 -8.564632
v -0.084553 2.826516 -8.656126
v 0.145710 3.106480 -8.704897
v 0.000000 3.106480 -8.775066
v 0.181697 3.106480 -8.547226
v 0.080863 3.106480 -8.420784
v -0.080863 3.106480 -8.420784
v -0.181697 3.106480 -8.547226
v -0.145709 3.106480 -8.704897
v 0.167342 3.124521 -8.722148
v 0.000000 3.124521 -8.802735
v 0.208672 3.124521 -8.541069
v 0.092868 3.124521 -8.395855
v -0.092868 3.124521 -8.395855
v -0.208672 3.124521 -8.541069
v -0.167342 3.124521 -8.722148
v 0.167342 3.145337 -8.722148
v 0.000000 3.145337 -8.802735
v 0.208672 3.145337 -8.541069
v 0.092868 3.145337 -8.395855
v -0.092868 3.145337 -8.395855
v -0.208672 3.145337 -8.541069
v -0.167342 3.145337 -8.722148
v 0.017054 3.282722 -8.602298
v 0.000000 3.282722 -8.610510
v 0.021266 3.282722 -8.583843
v 0.009464 3.282722 -8.569045
v -0.009464 3.282722 -8.569045
v -0.021266 3.282722 -8.583843
v -0.017054 3.282722 -8.602298
v 0.000000 3.305183 -8.614248
v 0.025424 3.305183 -8.582594
v -0.011315 3.305183 -8.564901
v -0.020388 3.305183 -8.604655
v 0.020388 3.305183 -8.604655
v -0.025424 3.305183 -8.582594
v 0.011315 3.305183 -8.564901
v 0.000000 3.292333 -8.648054
v 0.058631 3.292333 -8.575055
v -0.026093 3.292333 -8.534254
v -0.047019 3.292333 -8.625934
v 0.047019 3.292333 -8.625934
v -0.058631 3.292333 -8.575055
v 0.026093 3.292333 -8.534254
v 0.000000 3.281893 -8.659121
v 0.069500 3.281893 -8.572588
v -0.030931 3.281893 -8.524223
v -0.055735 3.281893 -8.632898
v 0.055735 3.281893 -8.632898
v -0.069500 3.281893 -8.572588
v 0.030931 3.281893 -8.524223
vn -0.7813 -0.0377 0.6230
vn -0.9736 0.0520 -0.2222
vn 0.4336 -0.0377 -0.9003
vn 0.7813 -0.0377 0.6230
vn -0.9742 -0.0377 -0.2224
vn -0.0000 -0.0377 0.9993
vn -0.4336 -0.0377 -0.9003
vn 0.9742 -0.0377 -0.2224
vn -0.4339 -0.0000 -0.9010
vn -0.0000 0.0520 0.9986
vn 0.9736 0.0520 -0.2222
vn -0.4333 0.0520 -0.8997
vn -0.7808 0.0520 0.6226
vn 0.7808 0.0520 0.6226
vn 0.4333 0.0520 -0.8997
vn -0.0000 1.0000 -0.0000
vn -0.7818 -0.0000 0.6235
vn 0.7818 -0.0000 0.6235
vn 0.4339 -0.0000 -0.9010
vn -0.9749 -0.0000 -0.2225
vn -0.0000 -0.0000 1.0000
vn 0.9749 -0.0000 -0.2225
vn 0.6822 0.7144 -0.1557
vn -0.3036 0.7144 -0.6305
vn -0.0000 0.7144 0.6998
vn -0.6822 0.7144 -0.1557
vn 0.5471 0.7144 0.4363
vn 0.3036 0.7144 -0.6305
vn -0.5471 0.7144 0.4363
vn -0.4338 0.0203 -0.9008
vn -0.9747 0.0203 -0.2225
vn -0.7817 0.0203 0.6234
vn -0.0000 0.0203 0.9998
vn 0.7817 0.0203 0.6234
vn 0.9747 0.0203 -0.2225
vn 0.4338 0.0203 -0.9008
vn -0.4281 -0.1622 -0.8890
vn -0.9620 -0.1622 -0.2196
vn -0.7715 -0.1622 0.6152
vn -0.0000 -0.1622 0.9868
vn 0.7715 -0.1622 0.6152
vn 0.9620 -0.1622 -0.2196
vn 0.4281 -0.1622 -0.8890
vn -0.2752 0.7732 -0.5714
vn -0.6183 0.7732 -0.1411
vn -0.4958 0.7732 0.3954
vn -0.0000 0.7732 0.6342
vn 0.4958 0.7732 0.3954
vn 0.6183 0.7732 -0.1411
vn 0.2752 0.7732 -0.5714
vn -0.6488 0.5580 0.5174
vn 0.6488 0.5580 0.5174
vn 0.3601 0.5580 -0.7477
vn -0.8090 0.5580 -0.1847
vn -0.0000 0.5580 0.8298
vn 0.8090 0.5580 -0.1847
vn -0.3601 0.5580 -0.7477
vn -1.0000 -0.0000 -0.0000
vn 0.4257 -0.0000 0.9049
vn 0.7818 -0.0000 -0.6235
vn -0.7818 -0.0000 -0.6235
vn -0.4257 -0.0000 0.9049
vn 0.9749 -0.0000 0.2225
vn -0.9749 -0.0000 0.2225
vn -0.0000 -0.0000 -1.0000
vn -0.0000 -1.0000 -0.0000
vn -0.0000 -1.0000 -0.0023
vn -0.0000 1.0000 -0.0017
vn 1.0000 -0.0000 -0.0000
vn -0.0000 -0.9114 -0.4116
vn 0.2471 0.8755 0.4152
vn 0.9645 0.2410 0.1084
vn 0.7217 -0.6264 -0.2946
vn -0.2471 0.8755 0.4152
vn -0.9645 0.2410 0.1084
vn -0.7217 -0.6264 -0.2946
vn -0.6839 -0.0601 0.7271
vn -0.3245 0.0040 -0.9459
vn -0.0000 -0.0013 1.0000
vn 0.9416 -0.0842 -0.3259
vn 0.6839 -0.0601 0.7271
vn 0.3245 0.0040 -0.9459
vn -0.9416 -0.0842 -0.3259
vn -0.7071 -0.0739 -0.7033
vn -0.9538 -0.0659 0.2931
vn -0.3471 0.0196 0.9376
vn 0.7071 -0.0739 -0.7033
vn 0.9538 -0.0659 0.2931
vn 0.3471 0.0196 0.9376
vn -0.0000 -0.0378 -0.9993
vn -0.9548 0.2049 -0.2153
vn 0.3251 0.5981 -0.7325
vn 0.6741 -0.4437 0.5905
vn 0.9548 0.2049 -0.2153
vn -0.0000 -0.6135 0.7897
vn -0.3251 0.5981 -0.7325
vn -0.6741 -0.4437 0.5905
vn -0.6675 -0.3895 -0.6347
vn -0.9531 0.1772 0.2454
vn -0.3195 0.5169 0.7942
vn 0.6675 -0.3895 -0.6347
vn 0.9531 0.1772 0.2454
vn 0.3195 0.5169 0.7942
vn -0.0000 -0.5318 -0.8469
vn -0.7213 -0.6599 0.2103
vn -0.2441 0.9214 -0.3024
vn -0.0000 -0.9592 0.2829
vn 0.9642 0.2548 -0.0730
vn 0.7213 -0.6599 0.2103
vn 0.2441 0.9214 -0.3024
vn -0.9642 0.2548 -0.0730
vn -0.0000 1.0000 0.0017
vn -0.0000 -1.0000 0.0003
vn -0.4371 -0.8939 -0.0998
vn -0.7582 -0.2441 0.6046
vn -0.0000 -0.8939 0.4483
vn 0.4371 -0.8939 -0.0998
vn -0.1945 -0.8939 -0.4039
vn -0.3505 -0.8939 0.2795
vn 0.3505 -0.8939 0.2795
vn 0.1945 -0.8939 -0.4039
vn -0.5716 -0.8101 -0.1305
vn 0.7582 -0.2441 0.6046
vn 0.4208 -0.2441 -0.8737
vn -0.9454 -0.2441 -0.2158
vn -0.0000 -0.2441 0.9697
vn 0.9454 -0.2441 -0.2158
vn -0.4208 -0.2441 -0.8737
vn -0.0000 -0.8101 0.5863
vn 0.5716 -0.8101 -0.1305
vn -0.2544 -0.8101 -0.5282
vn -0.4584 -0.8101 0.3655
vn 0.4584 -0.8101 0.3655
vn 0.2544 -0.8101 -0.5282
vn -0.2696 0.7834 -0.5599
vn -0.4859 0.7834 0.3875
vn 0.4859 0.7834 0.3875
vn 0.2696 0.7834 -0.5599
vn -0.6059 0.7834 -0.1383
vn -0.0000 0.7834 0.6215
vn 0.6059 0.7834 -0.1383
vn 0.4257 -0.0000 -0.9049
vn -0.4257 -0.0000 -0.9049
vn -0.1649 0.9220 -0.3504
vn -0.0000 0.9222 0.3867
vn 0.3765 0.9224 -0.0859
vn 0.3022 0.9223 0.2410
vn 0.1649 0.9220 -0.3504
vn -0.3765 0.9224 -0.0859
vn -0.3022 0.9223 0.2410
vn 0.3072 0.6922 -0.6530
vn -0.7025 0.6934 -0.1603
vn -0.5636 0.6930 0.4495
vn -0.3072 0.6922 -0.6530
vn -0.0000 0.6928 0.7211
vn 0.7025 0.6934 -0.1603
vn 0.5636 0.6930 0.4495
vn -0.0000 -0.9998 -0.0185
vn -0.0182 -0.9998 0.0041
vn -0.0145 -0.9998 -0.0116
vn -0.0080 -0.9998 0.0170
vn 0.0182 -0.9998 0.0041
vn 0.0145 -0.9998 -0.0116
vn 0.0080 -0.9998 0.0170
vt 0.428571 0.500000
vt 0.285714 0.500000
vt 0.142857 0.500000
vt 1.000000 0.500000
vt 0.857143 0.500000
vt 0.857143 0.500000
vt 0.714286 0.500000
vt 0.571429 0.500000
vt 0.571429 0.500000
vt 0.000000 0.500000
vt 0.142857 0.727403
vt 0.000000 0.727403
vt 0.285714 0.727403
vt 0.428571 0.727403
vt 0.571429 0.727403
vt 0.714286 0.727403
vt 0.857143 0.727403
vt 1.000000 0.727403
vt 0.142857 0.741451
vt 0.000000 0.741451
vt 0.285714 0.741452
vt 0.428571 0.741452
vt 0.571429 0.741452
vt 0.714286 0.741452
vt 0.857143 0.741451
vt 1.000000 0.741452
vt 0.142857 0.747956
vt 0.000000 0.747956
vt 0.285714 0.747956
vt 0.428571 0.747956
vt 0.571429 0.747956
vt 0.714286 0.747956
vt 0.857143 0.747955
vt 1.000000 0.747956
vt 0.428571 0.747956
vt 0.428572 0.747956
vt 0.142857 0.747955
vt 0.857143 0.747955
vt 0.000000 0.747956
vt 0.285714 0.747956
vt 0.142857 1.000000
vt 0.285714 1.000000
vt 0.857143 1.000000
vt 0.714286 1.000000
vt 0.571429 1.000000
vt 0.428571 1.000000
vt 0.000000 1.000000
vt 1.000000 1.000000
s 0
f 44/1/1 43/2/1 13/2/1 12/1/1
f 13/2/2 14/3/2 21/3/2 20/2/2
f 46/4/3 45/5/3 9/6/3 8/4/3
f 48/7/4 47/8/4 11/9/4 10/7/4
f 43/2/5 49/3/5 14/3/5 13/2/5
f 47/8/6 44/1/6 12/1/6 11/9/6
f 49/3/7 46/10/7 8/10/7 14/3/7
f 45/5/8 48/7/8 10/7/8 9/6/8
f 21/3/9 15/10/9 22/10/9 28/3/9
f 11/9/10 12/1/10 19/1/10 18/9/10
f 9/6/11 10/7/11 17/7/11 16/6/11
f 14/3/12 8/10/12 15/10/12 21/3/12
f 12/1/13 13/2/13 20/2/13 19/1/13
f 10/7/14 11/9/14 18/9/14 17/7/14
f 8/4/15 9/6/15 16/6/15 15/4/15
f 26/1/16 27/2/16 34/2/16 33/1/16
f 19/1/17 20/2/17 27/2/17 26/1/17
f 17/7/18 18/9/18 25/9/18 24/7/18
f 15/4/19 16/6/19 23/6/19 22/4/19
f 20/2/20 21/3/20 28/3/20 27/2/20
f 18/9/21 19/1/21 26/1/21 25/9/21
f 16/6/22 17/7/22 24/7/22 23/6/22
f 30/6/22 31/7/22 38/7/22 37/6/22
f 24/7/16 25/9/16 32/9/16 31/7/16
f 22/4/16 23/6/16 30/6/16 29/4/16
f 27/2/16 28/3/16 35/3/16 34/2/16
f 25/9/16 26/1/16 33/1/16 32/9/16
f 23/6/16 24/7/16 31/7/16 30/6/16
f 28/3/16 22/10/16 29/10/16 35/3/16
f 35/3/9 29/10/9 36/10/9 42/3/9
f 33/1/17 34/2/17 41/2/17 40/1/17
f 31/7/18 32/9/18 39/9/18 38/7/18
f 29/4/19 30/6/19 37/6/19 36/4/19
f 34/2/20 35/3/20 42/3/20 41/2/20
f 32/9/21 33/1/21 40/1/21 39/9/21
f 2/6/23 3/7/23 48/7/23 45/5/23
f 7/3/24 1/10/24 46/10/24 49/3/24
f 4/9/25 5/1/25 44/1/25 47/8/25
f 6/2/26 7/3/26 49/3/26 43/2/26
f 3/7/27 4/9/27 47/8/27 48/7/27
f 1/4/28 2/6/28 45/5/28 46/4/28
f 5/1/29 6/2/29 43/2/29 44/1/29
f 7/3/30 56/11/30 50/12/30 1/10/30
f 6/2/31 55/13/31 56/11/31 7/3/31
f 5/1/32 54/14/32 55/13/32 6/2/32
f 4/9/33 53/15/33 54/14/33 5/1/33
f 3/7/34 52/16/34 53/15/34 4/9/34
f 2/6/35 51/17/35 52/16/35 3/7/35
f 1/4/36 50/18/36 51/17/36 2/6/36
f 56/11/37 63/19/37 57/20/37 50/12/37
f 55/13/38 62/21/38 63/19/38 56/11/38
f 54/14/39 61/22/39 62/21/39 55/13/39
f 53/15/40 60/23/40 61/22/40 54/14/40
f 52/16/41 59/24/41 60/23/41 53/15/41
f 51/17/42 58/25/42 59/24/42 52/16/42
f 50/18/43 57/26/43 58/25/43 51/17/43
f 63/19/44 70/27/44 64/28/44 57/20/44
f 62/21/45 69/29/45 70/27/45 63/19/45
f 61/22/46 68/30/46 69/29/46 62/21/46
f 60/23/47 67/31/47 68/30/47 61/22/47
f 59/24/48 66/32/48 67/31/48 60/23/48
f 58/25/49 65/33/49 66/32/49 59/24/49
f 57/26/50 64/34/50 65/33/50 58/25/50
f 89/28/9 85/27/9 77/27/9 71/28/9
f 90/32/22 86/33/22 72/33/22 73/32/22
f 91/35/21 87/31/21 74/31/21 75/30/21
f 85/27/20 88/29/20 76/29/20 77/27/20
f 86/33/19 89/34/19 71/34/19 72/33/19
f 87/31/18 90/32/18 73/32/18 74/31/18
f 88/29/17 91/35/17 75/30/17 76/29/17
f 69/29/51 68/30/51 83/36/51 84/29/51
f 67/31/52 66/32/52 81/32/52 82/31/52
f 65/33/53 64/34/53 79/34/53 80/33/53
f 70/27/54 69/29/54 84/29/54 78/27/54
f 68/30/55 67/31/55 82/31/55 83/36/55
f 66/32/56 65/33/56 80/33/56 81/32/56
f 64/28/57 70/27/57 78/27/57 79/28/57
f 105/30/21 100/31/21 87/31/21 91/35/21
f 104/32/22 101/33/22 86/33/22 90/32/22
f 102/27/20 99/29/20 88/29/20 85/27/20
f 100/31/18 104/32/18 90/32/18 87/31/18
f 99/29/17 105/30/17 91/35/17 88/29/17
f 79/28/9 78/27/9 98/37/9 92/28/9
f 84/29/17 83/36/17 94/36/17 95/29/17
f 82/31/18 81/32/18 93/32/18 96/31/18
f 80/33/19 79/34/19 92/34/19 97/38/19
f 78/27/20 84/29/20 95/29/20 98/37/20
f 81/32/22 80/33/22 97/38/22 93/32/22
f 83/36/21 82/31/21 96/31/21 94/36/21
f 106/39/9 112/37/9 102/27/9 103/28/9
f 109/29/17 108/36/17 105/30/17 99/29/17
f 110/31/18 107/32/18 104/32/18 100/31/18
f 111/33/19 106/34/19 103/34/19 101/33/19
f 112/37/20 109/29/20 99/29/20 102/27/20
f 107/32/22 111/33/22 101/33/22 104/32/22
f 108/36/21 110/31/21 100/31/21 105/30/21
f 94/36/21 96/31/21 110/31/21 108/36/21
f 93/32/22 97/38/22 111/33/22 107/32/22
f 98/37/20 95/29/20 109/29/20 112/37/20
f 96/31/18 93/32/18 107/32/18 110/31/18
f 95/29/17 94/36/17 108/36/17 109/29/17
f 98/37/58 112/37/58 116/33/58 138/33/58
f 154/28/59 150/37/59 120/27/59 114/28/59
f 148/29/60 153/30/60 122/30/60 117/29/60
f 149/31/61 152/32/61 121/32/61 118/31/61
f 151/33/62 154/34/62 114/34/62 119/33/62
f 150/37/63 148/29/63 117/29/63 120/27/63
f 152/32/64 151/33/64 119/33/64 121/32/64
f 153/30/65 149/31/65 118/31/65 122/30/65
f 134/36/60 135/29/60 132/29/60 131/36/60
f 135/29/63 136/37/63 128/37/63 132/29/63
f 137/39/62 138/37/62 129/37/62 127/39/62
f 139/31/65 134/36/65 131/36/65 133/31/65
f 140/32/61 139/31/61 133/31/61 130/32/61
f 136/33/59 137/34/59 127/34/59 128/33/59
f 138/33/64 140/32/64 130/32/64 129/33/64
f 128/37/66 127/39/66 129/33/66 130/32/66 133/31/66 131/36/66 132/29/66
f 116/33/64 123/32/64 140/32/64 138/33/64
f 123/32/61 126/31/61 139/31/61 140/32/61
f 126/31/65 124/36/65 134/36/65 139/31/65
f 125/29/63 115/37/63 136/37/63 135/29/63
f 124/36/60 125/29/60 135/29/60 134/36/60
f 103/28/67 146/34/67 145/37/67 101/33/67
f 102/27/67 147/33/67 146/34/67 103/28/67
f 124/36/65 126/31/65 142/31/65 144/30/65
f 123/32/64 116/33/64 147/33/64 143/32/64
f 115/37/63 125/29/63 141/40/63 145/37/63
f 116/33/62 113/34/62 146/34/62 147/33/62
f 126/31/61 123/32/61 143/32/61 142/31/61
f 125/29/60 124/36/60 144/30/60 141/40/60
f 113/39/59 115/37/59 145/37/59 146/28/59
f 144/30/65 142/31/65 149/31/65 153/30/65
f 143/32/64 147/33/64 151/33/64 152/32/64
f 145/37/63 141/40/63 148/29/63 150/37/63
f 89/34/68 86/33/68 150/37/68 154/28/68
f 142/31/61 143/32/61 152/32/61 149/31/61
f 141/40/60 144/30/60 153/30/60 148/29/60
f 86/33/69 101/33/69 145/37/69 150/37/69
f 186/30/70 183/31/70 157/31/70 161/30/70
f 187/28/71 184/27/71 159/27/71 155/28/71
f 184/27/72 185/29/72 156/29/72 159/27/72
f 185/29/73 186/30/73 161/30/73 156/29/73
f 188/33/74 187/34/74 155/34/74 158/33/74
f 189/32/75 188/33/75 158/33/75 160/32/75
f 183/31/76 189/32/76 160/32/76 157/31/76
f 176/31/77 177/32/77 167/32/77 164/31/77
f 178/33/78 179/34/78 162/34/78 165/33/78
f 180/30/79 176/31/79 164/31/79 168/30/79
f 181/27/80 182/29/80 163/29/80 166/27/80
f 182/29/81 180/30/81 168/30/81 163/29/81
f 179/28/82 181/27/82 166/27/82 162/28/82
f 177/32/83 178/33/83 165/33/83 167/32/83
f 118/31/84 121/32/84 175/32/84 170/31/84
f 121/32/85 119/33/85 174/33/85 175/32/85
f 119/33/86 114/34/86 171/34/86 174/33/86
f 117/29/87 122/30/87 169/30/87 173/29/87
f 120/27/88 117/29/88 173/29/88 172/27/88
f 114/28/89 120/27/89 172/27/89 171/28/89
f 122/30/90 118/31/90 170/31/90 169/30/90
f 194/32/91 191/33/91 178/33/91 177/32/91
f 195/28/92 193/27/92 181/27/92 179/28/92
f 196/29/93 192/30/93 180/30/93 182/29/93
f 193/27/94 196/29/94 182/29/94 181/27/94
f 192/30/95 190/31/95 176/31/95 180/30/95
f 191/33/96 195/34/96 179/34/96 178/33/96
f 190/31/97 194/32/97 177/32/97 176/31/97
f 170/31/98 175/32/98 189/32/98 183/31/98
f 175/32/99 174/33/99 188/33/99 189/32/99
f 174/33/100 171/34/100 187/34/100 188/33/100
f 173/29/101 169/30/101 186/30/101 185/29/101
f 172/27/102 173/29/102 185/29/102 184/27/102
f 171/28/103 172/27/103 184/27/103 187/28/103
f 169/30/104 170/31/104 183/31/104 186/30/104
f 157/31/105 160/32/105 194/32/105 190/31/105
f 158/33/106 155/34/106 195/34/106 191/33/106
f 161/30/107 157/31/107 190/31/107 192/30/107
f 159/27/108 156/29/108 196/29/108 193/27/108
f 156/29/109 161/30/109 192/30/109 196/29/109
f 155/28/110 159/27/110 193/27/110 195/28/110
f 160/32/111 158/33/111 191/33/111 194/32/111
f 106/39/112 113/34/112 116/33/112 112/37/112
f 111/33/112 115/37/112 113/39/112 106/39/112
f 92/28/113 98/37/113 138/37/113 137/39/113
f 97/38/113 92/28/113 137/34/113 136/33/113
f 97/38/69 136/33/69 115/37/69 111/33/69
f 85/27/68 89/34/68 154/34/68 151/33/68
f 85/27/58 151/33/58 147/33/58 102/27/58
f 203/41/114 202/42/114 209/42/114 210/41/114
f 197/43/66 199/44/66 200/45/66 201/46/66 202/42/66 203/41/66 198/47/66
f 209/42/115 208/46/115 215/46/115 216/42/115
f 201/46/116 200/45/116 207/45/116 208/46/116
f 199/44/117 197/43/117 204/43/117 206/44/117
f 198/47/118 203/41/118 210/41/118 205/47/118
f 202/42/119 201/46/119 208/46/119 209/42/119
f 200/45/120 199/44/120 206/44/120 207/45/120
f 197/43/121 198/48/121 205/48/121 204/43/121
f 217/41/122 216/42/122 223/42/122 224/41/122
f 207/45/123 206/44/123 213/44/123 214/45/123
f 204/43/124 205/48/124 212/48/124 211/43/124
f 210/41/125 209/42/125 216/42/125 217/41/125
f 208/46/126 207/45/126 214/45/126 215/46/126
f 206/44/127 204/43/127 211/43/127 213/44/127
f 205/47/128 210/41/128 217/41/128 212/47/128
f 221/45/18 220/44/18 227/44/18 228/45/18
f 215/46/129 214/45/129 221/45/129 222/46/129
f 213/44/130 211/43/130 218/43/130 220/44/130
f 212/47/131 217/41/131 224/41/131 219/47/131
f 216/42/132 215/46/132 222/46/132 223/42/132
f 214/45/133 213/44/133 220/44/133 221/45/133
f 211/43/134 212/48/134 219/48/134 218/43/134
f 226/47/135 231/41/135 238/41/135 233/47/135
f 218/43/19 219/48/19 226/48/19 225/43/19
f 224/41/20 223/42/20 230/42/20 231/41/20
f 222/46/21 221/45/21 228/45/21 229/46/21
f 220/44/22 218/43/22 225/43/22 227/44/22
f 219/47/9 224/41/9 231/41/9 226/47/9
f 223/42/17 222/46/17 229/46/17 230/42/17
f 230/42/136 229/46/136 236/46/136 237/42/136
f 228/45/137 227/44/137 234/44/137 235/45/137
f 225/43/138 226/48/138 233/48/138 232/43/138
f 231/41/139 230/42/139 237/42/139 238/41/139
f 229/46/140 228/45/140 235/45/140 236/46/140
f 227/44/141 225/43/141 232/43/141 234/44/141
f 168/30/21 164/31/21 241/31/21 245/30/21
f 166/27/22 163/29/22 240/29/22 243/27/22
f 163/29/18 168/30/18 245/30/18 240/29/18
f 162/28/142 166/27/142 243/27/142 239/28/142
f 167/32/20 165/33/20 242/33/20 244/32/20
f 164/31/17 167/32/17 244/32/17 241/31/17
f 165/33/143 162/34/143 239/34/143 242/33/143
f 242/33/144 239/34/144 246/34/144 249/33/144
f 245/30/145 241/31/145 248/31/145 252/30/145
f 243/27/146 240/29/146 247/29/146 250/27/146
f 240/29/147 245/30/147 252/30/147 247/29/147
f 239/28/148 243/27/148 250/27/148 246/28/148
f 244/32/149 242/33/149 249/33/149 251/32/149
f 241/31/150 244/32/150 251/32/150 248/31/150
f 246/28/151 250/27/151 257/27/151 253/28/151
f 251/32/152 249/33/152 256/33/152 258/32/152
f 248/31/153 251/32/153 258/32/153 255/31/153
f 249/33/154 246/34/154 253/34/154 256/33/154
f 252/30/155 248/31/155 255/31/155 259/30/155
f 250/27/156 247/29/156 254/29/156 257/27/156
f 247/29/157 252/30/157 259/30/157 254/29/157
f 259/30/158 255/31/158 236/31/158 235/30/158
f 257/27/159 254/29/159 234/29/159 232/27/159
f 254/29/160 259/30/160 235/30/160 234/29/160
f 253/28/161 257/27/161 232/27/161 233/28/161
f 258/32/162 256/33/162 238/33/162 237/32/162
f 255/31/163 258/32/163 237/32/163 236/31/163
f 256/33/164 253/34/164 233/34/164 238/33/164
f 77/27/16 76/29/16 75/30/16 74/31/16 73/32/16 72/33/16 71/34/16
