# Blender 4.0.2
# www.blender.org
mtllib barrel._deformed1obj.mtl
o closed_barell_deformed
v 0.000160 -0.000856 -0.284901
v 0.000742 0.831350 -0.285251
v 0.204308 -0.001633 -0.199487
v 0.203249 0.855437 -0.199208
v 0.284840 -0.000865 -0.000500
v 0.287076 0.835011 0.003768
v 0.201602 -0.001284 0.201457
v 0.200659 0.858732 0.199432
v 0.000060 -0.002347 0.283886
v -0.000233 0.854793 0.284976
v -0.202464 -0.001446 0.201880
v -0.199902 0.869878 0.201153
v -0.282357 0.000908 -0.000304
v -0.284931 0.869620 0.000086
v -0.200796 -0.003502 -0.200605
v -0.204430 0.854390 -0.201890
v -0.003322 0.432982 -0.265584
v 0.185432 0.434881 -0.200846
v 0.262491 0.437556 -0.022273
v 0.184304 0.435156 0.178547
v 0.002311 0.436628 0.267560
v -0.190172 0.410571 0.229186
v -0.268618 0.399269 0.073966
v -0.191144 0.410903 -0.145788
vn 0.3612 -0.0302 -0.9320
vn 0.9203 -0.0345 -0.3897
vn 0.9201 -0.0679 0.3857
vn 0.4146 -0.0482 0.9087
vn -0.2977 0.0074 0.9546
vn -0.9090 0.0202 0.4164
vn 0.0365 0.9988 -0.0324
vn -0.9337 -0.0799 -0.3491
vn -0.4577 -0.0847 -0.8850
vn -0.0003 -1.0000 0.0002
vn -0.4673 0.0803 -0.8804
vn -0.9325 0.0827 -0.3516
vn -0.9139 -0.0215 0.4054
vn -0.2911 -0.0074 0.9567
vn 0.4077 0.0479 0.9119
vn 0.9264 0.0610 0.3717
vn 0.9222 0.0333 -0.3852
vn 0.3568 0.0284 -0.9338
vt 1.000000 0.750000
vt 1.000000 1.000000
vt 0.875000 1.000000
vt 0.875000 0.750000
vt 0.750000 1.000000
vt 0.750000 0.750000
vt 0.625000 1.000000
vt 0.625000 0.750000
vt 0.500000 1.000000
vt 0.500000 0.750000
vt 0.375000 1.000000
vt 0.375000 0.750000
vt 0.250000 1.000000
vt 0.250000 0.750000
vt 0.419706 0.419706
vt 0.250000 0.490000
vt 0.080294 0.419706
vt 0.010000 0.250000
vt 0.080294 0.080294
vt 0.250000 0.010000
vt 0.419706 0.080294
vt 0.490000 0.250000
vt 0.125000 1.000000
vt 0.125000 0.750000
vt 0.000000 1.000000
vt 0.000000 0.750000
vt 0.750000 0.490000
vt 0.919706 0.419706
vt 0.990000 0.250000
vt 0.919706 0.080294
vt 0.750000 0.010000
vt 0.580294 0.080294
vt 0.510000 0.250000
vt 0.580294 0.419706
vt 0.125000 0.500000
vt 0.000000 0.500000
vt 0.250000 0.500000
vt 0.375000 0.500000
vt 0.500000 0.500000
vt 0.625000 0.500000
vt 0.750000 0.500000
vt 0.875000 0.500000
vt 1.000000 0.500000
s 0
f 17/1/1 2/2/1 4/3/1 18/4/1
f 18/4/2 4/3/2 6/5/2 19/6/2
f 19/6/3 6/5/3 8/7/3 20/8/3
f 20/8/4 8/7/4 10/9/4 21/10/4
f 21/10/5 10/9/5 12/11/5 22/12/5
f 22/12/6 12/11/6 14/13/6 23/14/6
f 4/15/7 2/16/7 16/17/7 14/18/7 12/19/7 10/20/7 8/21/7 6/22/7
f 23/14/8 14/13/8 16/23/8 24/24/8
f 24/24/9 16/23/9 2/25/9 17/26/9
f 1/27/10 3/28/10 5/29/10 7/30/10 9/31/10 11/32/10 13/33/10 15/34/10
f 15/35/11 24/24/11 17/26/11 1/36/11
f 13/37/12 23/14/12 24/24/12 15/35/12
f 11/38/13 22/12/13 23/14/13 13/37/13
f 9/39/14 21/10/14 22/12/14 11/38/14
f 7/40/15 20/8/15 21/10/15 9/39/15
f 5/41/16 19/6/16 20/8/16 7/40/16
f 3/42/17 18/4/17 19/6/17 5/41/17
f 1/43/18 17/1/18 18/4/18 3/42/18
