# Blender 4.0.2
# www.blender.org
mtllib rock1.mtl
o Icosphere
v -2.878690 0.945025 7.810398
v -2.950030 1.641096 9.111867
v -1.869365 2.201528 8.628754
v -1.713688 1.152916 8.096302
v -3.041827 0.673916 9.056943
v -1.956996 2.273974 8.514686
v -2.481835 2.183779 8.236592
v -2.852746 2.348983 8.993880
v -2.208642 2.459390 9.127449
v -2.241971 1.932029 7.811448
v -2.034560 2.052456 7.889583
v -2.119709 1.853290 7.758294
v -2.439247 1.986337 9.412785
v -2.070027 2.004344 9.340408
v -2.430423 0.055760 8.581291
v -2.460674 0.173615 8.447776
v -2.331494 0.355839 8.488156
v -2.342328 0.080395 8.676807
v -3.357695 0.655415 8.696590
v -3.296464 0.622095 8.424259
v -2.824920 1.575384 8.024046
v -2.071397 0.589414 8.178622
v -2.217691 0.393142 8.195487
v -2.294472 0.612187 7.936442
v -2.230578 0.541150 9.124544
v -2.146736 0.727976 9.115771
v -2.139259 0.822926 9.090454
v -2.224251 0.774194 9.293503
v -2.283843 0.695004 9.273502
vn -0.3596 -0.7024 -0.6143
vn -0.1011 -0.7682 -0.6322
vn 0.8448 -0.5152 0.1441
vn 0.1970 0.9161 -0.3491
vn 0.9240 -0.0485 0.3794
vn -0.7524 0.0341 0.6578
vn 0.9137 -0.4054 -0.0268
vn -0.8961 0.4248 -0.1287
vn -0.4901 0.3170 -0.8120
vn -0.5588 0.5361 -0.6327
vn 0.9031 0.2404 -0.3559
vn -0.0673 0.9588 -0.2760
vn 0.8070 0.5199 0.2802
vn -0.4005 -0.1458 0.9046
vn -0.2014 -0.6953 0.6899
vn -0.2739 -0.0286 0.9613
vn -0.4565 0.3984 0.7955
vn 0.1949 -0.0618 0.9789
vn -0.0067 0.5524 -0.8336
vn -0.2287 0.7756 -0.5883
vn -0.9032 0.3225 -0.2832
vn 0.1497 0.4561 0.8772
vn 0.9567 -0.1129 0.2684
vn -0.8566 0.2297 -0.4621
vn 0.7313 -0.4102 -0.5449
vn -0.5075 -0.8350 -0.2127
vn -0.9059 0.3449 -0.2459
vn -0.4503 -0.7799 0.4347
vn 0.6098 -0.5069 -0.6093
vn 0.7959 -0.3102 0.5200
vn 0.8547 -0.5055 0.1180
vn 0.2621 -0.1816 -0.9478
vt 0.713180 0.024410
vt 0.789856 0.157461
vt 0.636364 0.157461
vt 0.535581 0.017103
vt 0.559548 0.024410
vt 0.496482 0.106352
vt 0.511148 0.059422
vt 0.403824 0.163313
vt 0.488214 0.163313
vt 0.422874 0.212319
vt 0.415968 0.314921
vt 0.526678 0.314921
vt 0.481455 0.393252
vt 0.408861 0.393252
vt 0.391403 0.167004
vt 0.397020 0.167540
vt 0.337471 0.269601
vt 0.838093 0.167087
vt 0.939658 0.157461
vt 0.909091 0.314921
vt 0.292723 0.122827
vt 0.348544 0.026142
vt 0.373511 0.017103
vt 0.397944 0.059422
vt 0.835352 0.168670
vt 0.755508 0.314921
vt 0.702821 0.314921
vt 0.556156 0.296386
vt 0.564232 0.314921
vt 0.715047 0.336098
vt 0.609456 0.393252
vt 0.486218 0.212319
vt 0.539429 0.304484
vt 0.515296 0.308349
vt 0.337471 0.269601
vt 0.318413 0.393252
vt 0.682049 0.393252
vt 0.863867 0.393252
vt 0.136595 0.393252
vt 0.191836 0.332270
vt 0.201273 0.320585
vt 0.337471 0.360242
vt 0.121081 0.209719
vt 0.249471 0.165475
vt 0.250084 0.172658
vt 0.174884 0.302909
vt 0.167363 0.025040
vt 0.176744 0.026142
vt 0.148872 0.132236
vt 0.143185 0.143487
vt 0.121081 0.105203
vt 0.969829 0.105203
vt 0.137371 0.165475
vt 0.060739 0.209718
vt 0.000000 0.314921
vt 0.161058 0.314921
vt 0.045224 0.393252
vt 0.272357 0.186135
vt 0.198002 0.314921
vt 0.554260 0.299670
vt 0.540206 0.305830
vt 0.590679 0.393252
vt 0.553943 0.329623
vt 0.772497 0.393252
vt 0.184907 0.309573
vt 0.193374 0.314921
vt 0.279062 0.183313
vt 0.311306 0.314921
vt 0.789856 0.157461
vt 0.712958 0.290126
vt 0.181819 0.000000
vt 0.823326 0.148551
vt 0.900117 0.015544
vt 0.916366 0.037478
vt 0.838093 0.164298
vt 0.499199 0.072900
vt 0.147195 0.138619
vt 0.145062 0.146739
vt 0.407189 0.157461
vt 0.493674 0.154281
vt 0.486218 0.212319
vt 0.509815 0.160240
vt 0.525990 0.157461
vt 0.556156 0.296386
s 0
f 16/1/1 20/2/1 1/3/1
f 17/4/2 16/5/2 1/3/2 24/6/2 23/7/2
f 26/8/3 22/9/3 4/10/3
f 3/11/4 11/12/4 7/13/4 6/14/4
f 27/15/5 26/16/5 4/10/5 3/17/5
f 19/18/6 5/19/6 2/20/6
f 25/21/7 18/22/7 17/23/7 23/24/7
f 19/25/8 2/20/8 21/26/8
f 1/3/9 21/27/9 10/28/9
f 10/29/10 21/30/10 7/31/10
f 4/32/11 12/33/11 11/34/11 3/35/11
f 6/36/12 7/37/12 8/38/12 9/39/12
f 9/40/13 14/41/13 3/42/13 6/36/13
f 2/43/14 29/44/14 28/45/14 13/46/14
f 15/47/15 18/48/15 25/49/15 29/50/15 5/51/15
f 5/52/16 29/53/16 2/54/16
f 2/55/17 13/56/17 9/39/17 8/57/17
f 28/58/18 14/59/18 13/46/18
f 10/60/19 11/61/19 12/33/19
f 7/62/20 11/63/20 10/29/20
f 21/26/21 2/20/21 8/38/21 7/64/21
f 13/65/22 14/59/22 9/66/22
f 28/58/23 27/67/23 3/68/23 14/59/23
f 1/3/24 20/69/24 21/70/24
f 15/47/25 16/71/25 17/71/25 18/48/25
f 20/72/26 16/73/26 15/74/26 19/75/26
f 19/25/27 21/70/27 20/69/27
f 15/74/28 5/19/28 19/75/28
f 22/76/29 23/7/29 24/6/29
f 25/49/30 26/77/30 27/78/30 28/78/30 29/50/30
f 22/9/31 26/8/31 25/79/31 23/80/31
f 4/81/32 22/82/32 24/83/32 1/3/32 10/84/32 12/33/32
