# Blender 4.0.2
# www.blender.org
mtllib door_with_glass.mtl
o door3
v -2.035851 0.000078 -2.811146
v -2.035851 2.100078 -2.811146
v -2.035851 2.100078 -3.261146
v -2.035851 2.100078 -2.361146
v -2.035851 0.000078 -2.361146
v -2.035851 0.000078 -3.261146
v -2.035851 1.943306 -2.469053
v -2.035851 1.943306 -2.739888
v -2.035851 0.156850 -2.739888
v -2.035851 0.156850 -2.469053
v -2.035851 1.943306 -2.882404
v -2.035851 1.943306 -3.153239
v -2.035851 0.156850 -3.153239
v -2.035851 0.156850 -2.882404
v -2.006088 1.943306 -2.739888
v -2.006088 1.943306 -2.469053
v -2.006088 0.156850 -2.469053
v -2.006088 0.156850 -2.739888
v -1.964110 0.000078 -2.811146
v -1.964110 2.100078 -2.811146
v -1.964110 2.100078 -3.261146
v -1.964110 2.100078 -2.361146
v -1.964110 0.000078 -2.361146
v -1.964110 0.000078 -3.261146
v -1.964110 1.943306 -2.469053
v -1.964110 1.943306 -2.739888
v -1.964110 0.156850 -2.739888
v -1.964110 0.156850 -2.469053
v -1.964110 1.943306 -2.882404
v -1.964110 1.943306 -3.153239
v -1.964110 0.156850 -3.153239
v -1.964110 0.156850 -2.882404
v -1.993872 1.943306 -2.739888
v -1.993872 1.943306 -2.469053
v -1.993872 0.156850 -2.469053
v -1.993872 0.156850 -2.739888
vn -0.0000 -0.0000 1.0000
vn -0.0000 -0.0000 -1.0000
vn -0.0000 1.0000 -0.0000
vn -1.0000 -0.0000 -0.0000
vn -0.0000 -1.0000 -0.0000
vn 1.0000 -0.0000 -0.0000
vt 1.000000 0.000000
vt 0.000000 0.000000
vt 0.000000 1.000000
vt 1.000000 1.000000
vt 0.000000 0.500000
vt 0.036941 0.586196
vt 0.963059 0.586196
vt 1.000000 0.500000
vt 0.963059 0.413804
vt 0.036941 0.413804
vt 0.036941 0.086196
vt 0.963059 0.086196
vt 0.036941 0.913804
vt 0.963059 0.913804
s 0
f 5/1/1 23/1/1 22/2/1 4/2/1
f 3/3/2 21/3/2 24/4/2 6/4/2
f 20/5/3 21/3/3 3/3/3 2/5/3 4/2/3 22/2/3
f 2/5/4 11/6/4 14/7/4 1/8/4 9/9/4 8/10/4
f 4/2/4 2/5/4 8/10/4 7/11/4
f 19/8/5 23/1/5 5/1/5 1/8/5 6/4/5 24/4/5
f 1/8/4 5/1/4 10/12/4 9/9/4
f 5/1/4 4/2/4 7/11/4 10/12/4
f 2/5/4 3/3/4 12/13/4 11/6/4
f 3/3/4 6/4/4 13/14/4 12/13/4
f 6/4/4 1/8/4 14/7/4 13/14/4
f 30/13/1 12/13/1 13/14/1 31/14/1
f 31/14/3 13/14/3 14/7/3 32/7/3
f 32/7/2 14/7/2 11/6/2 29/6/2
f 9/9/3 10/12/3 28/12/3 27/9/3
f 22/2/6 25/11/6 26/10/6 20/5/6
f 19/8/6 27/9/6 28/12/6 23/1/6
f 23/1/6 28/12/6 25/11/6 22/2/6
f 20/5/6 29/6/6 30/13/6 21/3/6
f 21/3/6 30/13/6 31/14/6 24/4/6
f 24/4/6 31/14/6 32/7/6 19/8/6
f 7/11/5 8/10/5 26/10/5 25/11/5
f 9/9/1 27/9/1 26/10/1 8/10/1
f 10/12/2 7/11/2 25/11/2 28/12/2
f 19/8/6 32/7/6 29/6/6 20/5/6 26/10/6 27/9/6
f 29/6/5 11/6/5 12/13/5 30/13/5
l 9 18
l 15 8
l 16 7
l 10 17
l 27 36
l 33 26
l 34 25
l 28 35
o door3_glass
v -2.007312 1.943306 -2.739888
v -2.007312 1.943306 -2.469053
v -2.007311 0.156850 -2.469053
v -2.007311 0.156850 -2.739888
v -2.007312 1.943306 -3.153239
v -2.007312 1.943306 -2.882404
v -2.007311 0.156850 -2.882404
v -2.007311 0.156850 -3.153239
v -1.995096 1.943306 -2.739888
v -1.995096 1.943306 -2.469053
v -1.995096 0.156850 -2.469053
v -1.995096 0.156850 -2.739888
v -1.995096 1.943306 -3.153239
v -1.995096 1.943306 -2.882404
v -1.995096 0.156850 -2.882404
v -1.995096 0.156850 -3.153239
vn -0.0000 -0.0000 1.0000
vn -0.0000 -0.0000 -1.0000
vn -0.0000 1.0000 -0.0000
vn -0.0000 -1.0000 -0.0000
vn -1.0000 -0.0000 -0.0000
vn 1.0000 -0.0000 -0.0000
vt 0.963059 0.586196
vt 0.036941 0.586196
vt 0.963059 0.913804
vt 0.036941 0.913804
vt 0.963059 0.086196
vt 0.036941 0.086196
vt 0.036941 0.413804
vt 0.963059 0.413804
s 0
f 51/15/7 50/16/7 42/16/7 43/15/7
f 52/17/8 44/17/8 41/18/8 49/18/8
f 47/19/7 46/20/7 38/20/7 39/19/7
f 50/16/9 49/18/9 41/18/9 42/16/9
f 51/15/10 43/15/10 44/17/10 52/17/10
f 46/20/9 45/21/9 37/21/9 38/20/9
f 47/19/10 39/19/10 40/22/10 48/22/10
f 45/21/8 48/22/8 40/22/8 37/21/8
f 38/20/11 37/21/11 40/22/11 39/19/11
f 42/16/11 41/18/11 44/17/11 43/15/11
f 46/20/12 47/19/12 48/22/12 45/21/12
f 50/16/12 51/15/12 52/17/12 49/18/12
