# Blender 4.0.2
# www.blender.org
mtllib door2.mtl
o door2
v -1.267812 0.000078 -3.261146
v -1.267812 -0.017013 -3.273806
v -0.980085 1.939539 -3.086390
v -0.980085 1.939539 -2.535901
v -0.980085 1.722437 -2.535901
v -0.980085 1.722437 -3.086390
v -1.035405 1.939539 -3.086390
v -1.035405 1.939539 -2.535901
v -1.035405 1.722437 -2.535901
v -1.035405 1.722437 -3.086390
v -0.980085 2.100078 -3.261146
v -0.980085 2.100078 -2.361146
v -0.980085 0.000078 -2.361146
v -0.980085 0.000078 -3.261146
v -1.035405 2.100078 -3.261146
v -1.035405 2.100078 -2.361146
v -1.035405 0.000078 -2.361146
v -1.035405 0.000078 -3.261146
v -0.980085 1.130531 -3.214334
v -0.980085 1.130531 -2.407957
v -1.035405 1.130531 -3.214334
v -1.035405 1.130531 -2.407957
v -0.980085 1.058364 -2.408097
v -0.980085 1.058364 -3.214195
v -1.035405 1.058364 -3.214195
v -1.035405 1.058364 -2.408097
v -0.980085 1.130531 -2.437824
v -0.980085 1.130531 -3.184469
v -1.035405 1.130531 -3.184469
v -1.035405 1.130531 -2.437824
v -0.980085 1.058364 -2.437953
v -0.980085 1.058364 -3.184340
v -1.035405 1.058364 -2.437953
v -1.035405 1.058364 -3.184340
v -1.061084 1.130531 -2.437824
v -1.061084 1.130531 -2.407957
v -1.061084 1.130531 -3.214334
v -1.061084 1.058364 -3.214195
v -1.061084 1.058364 -2.408097
v -1.061084 1.058364 -3.184340
v -1.061084 1.130531 -3.184469
v -1.061084 1.058364 -2.437953
v -1.072418 1.130531 -2.437824
v -1.072418 1.130531 -2.407957
v -1.072418 1.130531 -3.214334
v -1.072418 1.058364 -3.214195
v -1.072418 1.058364 -2.408097
v -1.072418 1.058364 -3.184340
v -1.072418 1.130531 -3.184469
v -1.072418 1.058364 -2.437953
v -0.950675 1.058364 -3.214195
v -0.950676 1.130531 -3.214334
v -0.950675 1.058364 -2.408097
v -0.950676 1.130531 -2.407957
v -0.950676 1.130531 -3.184469
v -0.950675 1.058364 -3.184340
v -0.950676 1.130531 -2.437824
v -0.950675 1.058364 -2.437953
v -0.940872 1.058364 -3.214195
v -0.940872 1.130531 -3.214334
v -0.940872 1.058364 -2.408097
v -0.940872 1.130531 -2.407957
v -0.940872 1.130531 -3.184469
v -0.940872 1.058364 -3.184340
v -0.940872 1.130531 -2.437824
v -0.940872 1.058364 -2.437953
vn -0.0000 -0.0000 1.0000
vn -0.0000 1.0000 -0.0000
vn -0.0000 -0.0000 -1.0000
vn -0.0000 -1.0000 -0.0000
vn 1.0000 -0.0000 -0.0000
vn -1.0000 -0.0000 -0.0000
vn -0.0000 0.0018 -1.0000
vn -0.0000 -0.0019 -1.0000
vn -0.0000 0.0018 1.0000
vn -0.0000 -0.0019 1.0000
vt 1.000000 0.000000
vt 0.000000 0.000000
vt 0.000000 1.000000
vt 0.893556 0.248370
vt 0.893556 0.248370
vt 0.106444 0.248370
vt 0.106444 0.248370
vt 0.893556 0.751630
vt 0.893556 0.751630
vt 1.000000 1.000000
vt 0.106444 0.751630
vt 0.973389 0.062092
vt 0.946778 0.124185
vt 0.946778 0.374728
vt 0.946778 0.625272
vt 0.946778 0.875815
vt 0.973389 0.937908
vt 0.106444 0.751630
vt 0.946778 0.124185
vt 0.973389 0.062092
vt 0.946778 0.875815
vt 0.946778 0.625272
vt 0.946778 0.374728
vt 0.973389 0.937908
vt 0.973389 0.354031
vt 0.973389 0.645969
vt 0.973389 0.354031
vt 0.973389 0.645969
s 0
f 13/1/1 12/2/1 16/2/1 17/1/1
f 12/2/2 11/3/2 15/3/2 16/2/2
f 5/4/3 9/5/3 8/6/3 4/7/3
f 6/8/2 10/9/2 9/5/2 5/4/2
f 14/10/4 13/1/4 17/1/4 18/10/4
f 11/3/3 14/10/3 18/10/3 15/3/3
f 4/7/5 3/11/5 11/3/5 12/2/5
f 5/4/5 4/7/5 12/2/5 13/1/5 23/12/5 20/13/5
f 6/8/5 5/4/5 20/13/5 27/14/5 28/15/5 19/16/5
f 3/11/5 6/8/5 19/16/5 24/17/5 14/10/5 11/3/5
f 7/18/6 8/6/6 16/2/6 15/3/6
f 8/6/6 9/5/6 22/19/6 26/20/6 17/1/6 16/2/6
f 9/5/6 10/9/6 21/21/6 29/22/6 30/23/6 22/19/6
f 10/9/6 7/18/6 15/3/6 18/10/6 25/24/6 21/21/6
f 3/11/1 7/18/1 10/9/1 6/8/1
f 4/7/4 8/6/4 7/18/4 3/11/4
f 31/25/7 27/14/7 57/14/7 58/25/7
f 29/22/2 21/21/2 37/21/2 41/22/2
f 24/17/5 32/26/5 31/25/5 23/12/5 13/1/5 14/10/5
f 26/20/6 33/27/6 34/28/6 25/24/6 18/10/6 17/1/6
f 22/19/2 30/23/2 35/23/2 36/19/2
f 30/23/6 29/22/6 34/28/6 33/27/6
f 23/12/4 31/25/4 58/25/4 53/12/4
f 28/15/5 27/14/5 31/25/5 32/26/5
f 37/21/8 38/24/8 46/24/8 45/21/8
f 38/24/4 40/28/4 48/28/4 46/24/4
f 34/28/9 29/22/9 41/22/9 40/28/9
f 26/20/10 22/19/10 36/19/10 39/20/10
f 25/24/4 34/28/4 40/28/4 38/24/4
f 30/23/7 33/27/7 42/27/7 35/23/7
f 21/21/8 25/24/8 38/24/8 37/21/8
f 33/27/4 26/20/4 39/20/4 42/27/4
f 49/22/6 45/21/6 46/24/6 48/28/6
f 44/19/6 43/23/6 50/27/6 47/20/6
f 52/16/2 55/15/2 63/15/2 60/16/2
f 41/22/2 37/21/2 45/21/2 49/22/2
f 39/20/10 36/19/10 44/19/10 47/20/10
f 36/19/2 35/23/2 43/23/2 44/19/2
f 57/14/2 54/13/2 62/13/2 65/14/2
f 42/27/4 39/20/4 47/20/4 50/27/4
f 49/22/5 43/23/5 50/27/5 48/28/5
f 35/23/6 41/22/6 40/28/6 42/27/6
f 35/23/4 43/23/4 49/22/4 41/22/4
f 40/28/2 48/28/2 50/27/2 42/27/2
f 27/14/2 20/13/2 54/13/2 57/14/2
f 20/13/10 23/12/10 53/12/10 54/13/10
f 32/26/4 24/17/4 51/17/4 56/26/4
f 19/16/2 28/15/2 55/15/2 52/16/2
f 28/15/9 32/26/9 56/26/9 55/15/9
f 24/17/8 19/16/8 52/16/8 51/17/8
f 65/14/5 62/13/5 61/12/5 66/25/5
f 60/16/5 63/15/5 64/26/5 59/17/5
f 51/17/8 52/16/8 60/16/8 59/17/8
f 65/14/2 63/15/2 55/15/2 57/14/2
f 53/12/4 58/25/4 66/25/4 61/12/4
f 56/26/4 51/17/4 59/17/4 64/26/4
f 54/13/10 53/12/10 61/12/10 62/13/10
f 58/25/4 56/26/4 64/26/4 66/25/4
f 55/15/5 57/14/5 58/25/5 56/26/5
f 64/26/5 63/15/5 65/14/5 66/25/5
l 1 2
