# Blender 4.0.2
# www.blender.org
mtllib ladder_vertical1.mtl
o ladder_leg2.001
v -1.080774 -0.025000 -2.691159
v -1.080774 3.039065 -2.691159
v -1.080774 -0.025000 -2.766160
v -1.080774 3.039065 -2.766160
v -1.005774 -0.025000 -2.691159
v -1.005774 3.039065 -2.691159
v -1.005774 -0.025000 -2.766160
v -1.005774 3.039065 -2.766160
v -1.080774 2.973273 -2.691159
v -1.080774 2.973273 -2.766160
v -1.005774 2.973273 -2.766160
v -1.005774 2.973273 -2.691159
v -1.304611 2.973273 -2.691159
v -1.304611 3.039065 -2.691159
v -1.304611 3.039065 -2.766160
v -1.304611 2.973273 -2.766160
v -1.080774 1.474136 -2.766160
v -1.005774 1.474136 -2.766160
v -1.005774 1.474136 -2.691159
v -1.080774 1.474136 -2.691159
v -1.080774 1.546566 -2.691159
v -1.080774 1.546566 -2.766160
v -1.005774 1.546566 -2.766160
v -1.005774 1.546566 -2.691159
v -1.306827 1.546566 -2.766160
v -1.306827 1.474136 -2.766160
v -1.306827 1.474136 -2.691159
v -1.306827 1.546566 -2.691159
v -1.080774 -0.025000 -2.193286
v -1.080774 3.039065 -2.193286
v -1.080774 -0.025000 -2.268286
v -1.080774 3.039065 -2.268286
v -1.005774 -0.025000 -2.193286
v -1.005774 3.039065 -2.193286
v -1.005774 -0.025000 -2.268286
v -1.005774 3.039065 -2.268286
v -1.080774 2.973273 -2.193286
v -1.080774 2.973273 -2.268286
v -1.005774 2.973273 -2.268286
v -1.005774 2.973273 -2.193286
v -1.304611 2.973273 -2.193286
v -1.304611 3.039065 -2.193286
v -1.304611 3.039065 -2.268286
v -1.304611 2.973273 -2.268286
v -1.080774 1.474136 -2.268286
v -1.005774 1.474136 -2.268286
v -1.005774 1.474136 -2.193286
v -1.080774 1.474136 -2.193286
v -1.080774 1.546566 -2.193286
v -1.080774 1.546566 -2.268286
v -1.005774 1.546566 -2.268286
v -1.005774 1.546566 -2.193286
v -1.306827 1.546566 -2.268286
v -1.306827 1.474136 -2.268286
v -1.306827 1.474136 -2.193286
v -1.306827 1.546566 -2.193286
v -1.068274 0.129014 -2.708568
v -1.068274 0.129014 -2.247895
v -1.068274 0.179014 -2.708568
v -1.068274 0.179014 -2.247895
v -1.018274 0.129014 -2.708568
v -1.018274 0.129014 -2.247895
v -1.018274 0.179014 -2.708568
v -1.018274 0.179014 -2.247895
v -1.068274 0.479014 -2.708568
v -1.068274 0.479014 -2.247895
v -1.068274 0.529014 -2.708568
v -1.068274 0.529014 -2.247895
v -1.018274 0.479014 -2.708568
v -1.018274 0.479014 -2.247895
v -1.018274 0.529014 -2.708568
v -1.018274 0.529014 -2.247895
v -1.068274 0.829014 -2.708568
v -1.068274 0.829014 -2.247895
v -1.068274 0.879014 -2.708568
v -1.068274 0.879014 -2.247895
v -1.018274 0.829014 -2.708568
v -1.018274 0.829014 -2.247895
v -1.018274 0.879014 -2.708568
v -1.018274 0.879014 -2.247895
v -1.068274 1.179014 -2.708568
v -1.068274 1.179014 -2.247895
v -1.068274 1.229014 -2.708568
v -1.068274 1.229014 -2.247895
v -1.018274 1.179014 -2.708568
v -1.018274 1.179014 -2.247895
v -1.018274 1.229014 -2.708568
v -1.018274 1.229014 -2.247895
v -1.068274 1.529014 -2.708568
v -1.068274 1.529014 -2.247895
v -1.068274 1.579014 -2.708568
v -1.068274 1.579014 -2.247895
v -1.018274 1.529014 -2.708568
v -1.018274 1.529014 -2.247895
v -1.018274 1.579014 -2.708568
v -1.018274 1.579014 -2.247895
v -1.068274 1.879014 -2.708568
v -1.068274 1.879014 -2.247895
v -1.068274 1.929014 -2.708568
v -1.068274 1.929014 -2.247895
v -1.018274 1.879014 -2.708568
v -1.018274 1.879014 -2.247895
v -1.018274 1.929014 -2.708568
v -1.018274 1.929014 -2.247895
v -1.068274 2.229014 -2.708568
v -1.068274 2.229014 -2.247895
v -1.068274 2.279014 -2.708568
v -1.068274 2.279014 -2.247895
v -1.018274 2.229014 -2.708568
v -1.018274 2.229014 -2.247895
v -1.018274 2.279014 -2.708568
v -1.018274 2.279014 -2.247895
v -1.068274 2.579014 -2.708568
v -1.068274 2.579014 -2.247895
v -1.068274 2.629014 -2.708568
v -1.068274 2.629014 -2.247895
v -1.018274 2.579014 -2.708568
v -1.018274 2.579014 -2.247895
v -1.018274 2.629014 -2.708568
v -1.018274 2.629014 -2.247895
v -1.068274 2.929014 -2.708568
v -1.068274 2.929014 -2.247895
v -1.068274 2.979014 -2.708568
v -1.068274 2.979014 -2.247895
v -1.018274 2.929014 -2.708568
v -1.018274 2.929014 -2.247895
v -1.018274 2.979014 -2.708568
v -1.018274 2.979014 -2.247895
vn -0.0000 1.0000 -0.0000
vn -0.0000 -0.0000 -1.0000
vn 1.0000 -0.0000 -0.0000
vn -0.0000 -0.0000 1.0000
vn -0.0000 -1.0000 -0.0000
vn -1.0000 -0.0000 -0.0000
vt 0.875000 0.750000
vt 0.875000 0.500000
vt 0.619632 0.250000
vt 0.625000 0.250000
vt 0.625000 0.500000
vt 0.619632 0.500000
vt 0.625000 0.750000
vt 0.619632 0.750000
vt 0.625000 1.000000
vt 0.619632 1.000000
vt 0.125000 0.500000
vt 0.375000 0.500000
vt 0.375000 0.750000
vt 0.125000 0.750000
vt 0.503226 0.750000
vt 0.503226 1.000000
vt 0.503226 0.500000
vt 0.503226 0.250000
vt 0.503226 0.000000
vt 0.619632 0.000000
vt 0.625000 0.000000
vt 0.375000 0.000000
vt 0.497316 0.000000
vt 0.497316 0.250000
vt 0.375000 0.250000
vt 0.497316 0.500000
vt 0.497316 0.750000
vt 0.497316 1.000000
vt 0.375000 1.000000
s 0
f 2/1/1 4/2/1 15/2/1 14/1/1
f 10/3/2 4/4/2 8/5/2 11/6/2
f 11/6/3 8/5/3 6/7/3 12/8/3
f 12/8/4 6/7/4 2/9/4 9/10/4
f 3/11/5 7/12/5 5/13/5 1/14/5
f 8/5/1 4/2/1 2/1/1 6/7/1
f 24/15/4 12/8/4 9/10/4 21/16/4
f 23/17/3 11/6/3 12/8/3 24/15/3
f 22/18/2 10/3/2 11/6/2 23/17/2
f 21/19/6 9/20/6 10/3/6 22/18/6
f 13/20/6 14/21/6 15/4/6 16/3/6
f 4/4/2 10/3/2 16/3/2 15/4/2
f 9/10/4 2/9/4 14/9/4 13/10/4
f 10/3/5 9/20/5 13/20/5 16/3/5
f 1/22/6 20/23/6 17/24/6 3/25/6
f 3/25/2 17/24/2 18/26/2 7/12/2
f 7/12/3 18/26/3 19/27/3 5/13/3
f 5/13/4 19/27/4 20/28/4 1/29/4
f 21/19/1 22/18/1 25/18/1 28/19/1
f 17/24/2 22/18/2 23/17/2 18/26/2
f 18/26/3 23/17/3 24/15/3 19/27/3
f 19/27/4 24/15/4 21/16/4 20/28/4
f 27/23/6 28/19/6 25/18/6 26/24/6
f 20/28/4 21/16/4 28/16/4 27/28/4
f 17/24/5 20/23/5 27/23/5 26/24/5
f 22/18/2 17/24/2 26/24/2 25/18/2
f 30/1/1 32/2/1 43/2/1 42/1/1
f 38/3/2 32/4/2 36/5/2 39/6/2
f 39/6/3 36/5/3 34/7/3 40/8/3
f 40/8/4 34/7/4 30/9/4 37/10/4
f 31/11/5 35/12/5 33/13/5 29/14/5
f 36/5/1 32/2/1 30/1/1 34/7/1
f 52/15/4 40/8/4 37/10/4 49/16/4
f 51/17/3 39/6/3 40/8/3 52/15/3
f 50/18/2 38/3/2 39/6/2 51/17/2
f 49/19/6 37/20/6 38/3/6 50/18/6
f 41/20/6 42/21/6 43/4/6 44/3/6
f 32/4/2 38/3/2 44/3/2 43/4/2
f 37/10/4 30/9/4 42/9/4 41/10/4
f 38/3/5 37/20/5 41/20/5 44/3/5
f 29/22/6 48/23/6 45/24/6 31/25/6
f 31/25/2 45/24/2 46/26/2 35/12/2
f 35/12/3 46/26/3 47/27/3 33/13/3
f 33/13/4 47/27/4 48/28/4 29/29/4
f 49/19/1 50/18/1 53/18/1 56/19/1
f 45/24/2 50/18/2 51/17/2 46/26/2
f 46/26/3 51/17/3 52/15/3 47/27/3
f 47/27/4 52/15/4 49/16/4 48/28/4
f 55/23/6 56/19/6 53/18/6 54/24/6
f 48/28/4 49/16/4 56/16/4 55/28/4
f 45/24/5 48/23/5 55/23/5 54/24/5
f 50/18/2 45/24/2 54/24/2 53/18/2
f 57/22/6 58/21/6 60/4/6 59/25/6
f 59/25/1 60/4/1 64/5/1 63/12/1
f 63/12/3 64/5/3 62/7/3 61/13/3
f 61/13/5 62/7/5 58/9/5 57/29/5
f 65/22/6 66/21/6 68/4/6 67/25/6
f 67/25/1 68/4/1 72/5/1 71/12/1
f 71/12/3 72/5/3 70/7/3 69/13/3
f 69/13/5 70/7/5 66/9/5 65/29/5
f 73/22/6 74/21/6 76/4/6 75/25/6
f 75/25/1 76/4/1 80/5/1 79/12/1
f 79/12/3 80/5/3 78/7/3 77/13/3
f 77/13/5 78/7/5 74/9/5 73/29/5
f 81/22/6 82/21/6 84/4/6 83/25/6
f 83/25/1 84/4/1 88/5/1 87/12/1
f 87/12/3 88/5/3 86/7/3 85/13/3
f 85/13/5 86/7/5 82/9/5 81/29/5
f 89/22/6 90/21/6 92/4/6 91/25/6
f 91/25/1 92/4/1 96/5/1 95/12/1
f 95/12/3 96/5/3 94/7/3 93/13/3
f 93/13/5 94/7/5 90/9/5 89/29/5
f 97/22/6 98/21/6 100/4/6 99/25/6
f 99/25/1 100/4/1 104/5/1 103/12/1
f 103/12/3 104/5/3 102/7/3 101/13/3
f 101/13/5 102/7/5 98/9/5 97/29/5
f 105/22/6 106/21/6 108/4/6 107/25/6
f 107/25/1 108/4/1 112/5/1 111/12/1
f 111/12/3 112/5/3 110/7/3 109/13/3
f 109/13/5 110/7/5 106/9/5 105/29/5
f 113/22/6 114/21/6 116/4/6 115/25/6
f 115/25/1 116/4/1 120/5/1 119/12/1
f 119/12/3 120/5/3 118/7/3 117/13/3
f 117/13/5 118/7/5 114/9/5 113/29/5
f 121/22/6 122/21/6 124/4/6 123/25/6
f 123/25/1 124/4/1 128/5/1 127/12/1
f 127/12/3 128/5/3 126/7/3 125/13/3
f 125/13/5 126/7/5 122/9/5 121/29/5
