# Blender 4.0.2
# www.blender.org
mtllib rock3.mtl
o Icosphere.001
v 1.707581 0.848205 7.992029
v 1.698336 0.642776 5.858195
v -1.226168 2.458902 7.994375
v 0.980664 2.454900 6.929740
v 1.188823 1.660591 8.365654
v 0.070930 2.662137 8.115235
v -0.034759 0.066776 6.079041
v -0.753918 0.009434 6.482346
v 0.215941 1.518857 4.923763
v 0.743612 0.638180 5.527776
v 0.902102 0.032674 6.457207
v 0.899492 0.033944 7.419400
v -0.017242 0.018784 7.715888
v 0.812992 3.238270 6.836378
v 0.595693 3.315586 6.002398
v -0.235891 3.300640 6.358371
v -0.226781 3.372978 7.132668
v 0.373987 1.743032 4.902462
v -0.017291 2.417755 5.364973
v 1.292162 2.442523 5.820035
v 1.141966 1.745550 5.408529
v 0.640324 2.759037 7.752882
v 0.634235 3.210638 7.015985
v -0.369311 2.154146 5.662115
v -0.914104 1.803645 6.128303
v -0.606093 2.208826 6.562869
v -0.318626 2.462884 6.377052
v -0.914816 1.076321 5.497098
v -0.535580 1.452618 5.031058
v -0.443176 0.880094 8.562213
v -0.255432 0.511611 8.450996
v 0.439747 1.141351 8.494283
v -0.208014 1.245087 8.492598
v -1.643305 1.086409 6.719484
vn 0.6636 -0.7465 0.0484
vn -0.1347 0.2775 0.9512
vn -0.6868 0.5149 -0.5130
vn 0.8864 0.4593 0.0583
vn 0.9203 0.3890 -0.0414
vn 0.8627 0.4850 0.1432
vn 0.2647 -0.6446 0.7172
vn 0.1967 -0.8058 -0.5585
vn -0.8467 0.3991 -0.3518
vn -0.4395 0.4568 -0.7734
vn -0.1786 -0.6357 -0.7510
vn -0.6525 -0.6781 0.3382
vn -0.1778 0.7709 0.6116
vn -0.7148 0.6138 -0.3351
vn 0.1175 0.3529 0.9282
vn 0.0144 -0.9997 -0.0219
vn -0.8277 -0.2257 0.5138
vn 0.8592 0.4533 0.2371
vn 0.4198 -0.2596 -0.8697
vn 0.3244 0.4927 -0.8075
vn 0.9755 0.2202 0.0008
vn 0.2124 0.8265 0.5213
vn 0.0759 0.9968 0.0256
vn -0.6807 0.6984 -0.2213
vn -0.7834 0.4604 -0.4175
vn -0.8464 -0.1748 -0.5030
vn 0.0949 -0.0625 0.9935
vn -0.7460 -0.5095 0.4288
vn 0.3137 -0.2240 0.9227
vt 0.272728 0.157461
vt 0.322210 0.071755
vt 0.405064 0.071755
vt 0.454546 0.157461
vt 0.123138 0.255500
vt 0.130388 0.266762
vt 0.102583 0.314921
vt 0.000000 0.314921
vt 0.580429 0.375499
vt 0.615404 0.314921
vt 0.687709 0.314921
vt 0.706773 0.350429
vt 0.668318 0.417035
vt 0.363637 0.314921
vt 0.475507 0.314921
vt 0.486500 0.417035
vt 0.422592 0.417035
vt 0.221436 0.246302
vt 0.140392 0.071755
vt 0.223246 0.071755
vt 0.158232 0.196005
vt 0.101210 0.139621
vt 0.504027 0.071755
vt 0.592486 0.081461
vt 0.548608 0.157461
vt 0.747773 0.350429
vt 0.763014 0.314921
vt 0.909091 0.314921
vt 0.850136 0.417035
vt 0.786228 0.417035
vt 0.592486 0.233460
vt 0.646150 0.233459
vt 0.615404 0.314921
vt 0.580429 0.254343
vt 0.724119 0.157461
vt 0.691119 0.214618
vt 0.646150 0.233459
vt 0.548608 0.157461
vt 0.867664 0.071755
vt 0.950518 0.071755
vt 0.989700 0.139621
vt 0.826442 0.143154
vt 0.114534 0.375095
vt 0.058955 0.417035
vt 0.830369 0.178570
vt 0.749692 0.276090
vt 0.201854 0.280742
vt 0.261054 0.314921
vt 0.231952 0.365329
vt 0.102583 0.314921
vt 0.685846 0.071755
vt 0.987813 0.178570
vt 0.277133 0.405951
vt 0.231952 0.365329
vt 0.261054 0.314921
vt 0.304682 0.417035
vt 0.510481 0.254344
vt 0.609458 0.417035
vt 0.244512 0.417035
vt 0.718780 0.300210
vt 0.736769 0.298474
vt 0.727273 0.314921
vt 0.806927 0.176955
vt 0.142202 0.246301
vt 0.155519 0.264080
s 0
f 1/1/1 12/2/1 11/3/1 2/4/1
f 30/5/2 33/6/2 6/7/2 3/8/2
f 15/9/3 19/10/3 24/11/3 27/12/3 16/13/3
f 4/14/4 20/15/4 15/16/4 14/17/4
f 1/1/5 2/4/5 4/14/5
f 1/1/6 4/14/6 5/18/6
f 13/19/7 12/20/7 1/1/7 32/21/7 31/22/7
f 11/23/8 7/24/8 10/25/8 2/4/8
f 27/26/9 26/27/9 3/28/9 17/29/9 16/30/9
f 9/31/10 29/32/10 24/11/10 19/33/10 18/34/10
f 7/24/11 8/35/11 28/36/11 29/37/11 9/31/11 10/38/11
f 8/39/12 13/40/12 31/41/12 34/42/12
f 3/8/13 6/43/13 17/44/13
f 34/45/14 3/28/14 26/27/14 25/46/14
f 33/6/15 32/47/15 5/48/15 22/49/15 6/50/15
f 8/39/16 7/51/16 11/23/16 12/2/16 13/19/16
f 34/45/17 30/52/17 3/28/17
f 23/53/18 22/54/18 5/55/18 4/14/18 14/56/18
f 2/4/19 10/38/19 9/31/19 18/34/19 21/57/19
f 18/34/20 19/33/20 15/9/20 20/15/20 21/57/20
f 2/4/21 21/57/21 20/15/21 4/14/21
f 17/58/22 6/43/22 22/49/22 23/53/22
f 14/56/23 15/16/23 16/13/23 17/58/23 23/59/23
f 24/60/24 25/46/24 26/61/24 27/62/24
f 28/36/25 25/46/25 24/11/25 29/32/25
f 28/36/26 8/35/26 34/63/26 25/46/26
f 30/5/27 31/64/27 32/65/27 33/6/27
f 30/52/28 34/42/28 31/41/28
f 32/21/29 1/1/29 5/18/29
l 7 13
