# Blender 4.0.2
# www.blender.org
mtllib trash_bag3.mtl
o Icosphere.007
v -3.121863 0.018095 2.277636
v -2.813403 0.065594 2.437076
v -3.075639 0.024477 2.493376
v -3.254452 0.032318 2.278725
v -3.067086 0.045041 2.048372
v -2.791263 0.026806 2.149286
v -2.918240 0.419058 2.021789
v -2.715162 0.370648 2.362465
v -2.977931 0.225377 2.662543
v -2.826637 0.260564 2.610850
v -2.815937 0.392424 2.525454
v -2.969180 0.425901 2.475299
v -3.085377 0.335835 2.546297
v -3.264883 0.171082 1.968621
v -3.434481 0.200624 2.149229
v -3.320241 0.370492 2.287982
v -3.182058 0.452383 2.184183
v -3.130658 0.386649 1.994495
v -3.423796 0.169898 2.414562
v -3.256567 0.145687 2.611867
v -3.154946 0.332327 2.527331
v -3.319890 0.369598 2.310471
v -3.017703 0.624271 2.311922
v -3.026716 0.624057 2.299317
v -3.042372 0.624685 2.302938
v -3.041794 0.624016 2.318715
v -3.026531 0.623576 2.324675
v -3.015931 0.661467 2.359236
v -2.980199 0.664801 2.307830
v -3.015223 0.662246 2.258132
v -3.077290 0.663194 2.273508
v -3.076181 0.661850 2.336241
v -3.134735 0.519563 2.336697
v -3.303906 0.374325 2.319392
v -3.191454 0.412538 2.431998
vn 0.1541 -0.9880 -0.0038
vn 0.0800 -0.9870 0.1392
vn -0.1061 -0.9930 0.0521
vn -0.1067 -0.9842 -0.1412
vn -0.0211 -0.9923 -0.1217
vn 0.9536 -0.2799 0.1111
vn 0.9232 -0.0937 0.3728
vn -0.1515 -0.0731 0.9857
vn -0.4240 -0.8582 0.2894
vn 0.3256 -0.1953 -0.9251
vn -0.2510 0.6456 0.7212
vn 0.3971 0.7778 0.4872
vn 0.8603 0.1172 -0.4962
vn 0.3015 -0.6602 0.6879
vn -0.4454 -0.8227 -0.3532
vn -0.2324 0.8001 -0.5530
vn -0.0270 0.6504 0.7591
vn -0.6323 0.6139 -0.4726
vn 0.2273 -0.1103 -0.9676
vn -0.6699 0.7388 -0.0727
vn -0.9872 -0.1587 0.0184
vn -0.7403 -0.6723 -0.0013
vn 0.6389 0.7141 -0.2861
vn -0.0144 0.9998 0.0114
vn 0.6395 -0.6416 -0.4235
vn -0.2914 -0.6026 0.7429
vn -0.1839 -0.6956 -0.6945
vn 0.6814 -0.5875 0.4364
vn -0.6222 0.6781 0.3912
vn -0.6037 0.5644 0.5629
vt 0.181819 0.000000
vt 0.272728 0.157461
vt 0.090910 0.157461
vt 0.363637 0.000000
vt 0.454546 0.157461
vt 0.909091 0.000000
vt 1.000000 0.157461
vt 0.818182 0.157461
vt 0.727273 0.000000
vt 0.636364 0.157461
vt 0.545455 0.000000
vt 0.363637 0.314921
vt 0.260190 0.314921
vt 0.215141 0.257205
vt 0.147724 0.255867
vt 0.111482 0.314921
vt 0.084028 0.314921
vt 0.041921 0.242312
vt 0.951012 0.242312
vt 0.867774 0.243358
vt 0.545455 0.314921
vt 0.067745 0.432260
vt 0.072850 0.333527
vt 0.084028 0.314921
vt 0.111482 0.314921
vt 0.145507 0.377817
vt 0.094005 0.467022
vt 0.088027 0.467389
vt 0.218131 0.377817
vt 0.260190 0.314921
vt 0.275926 0.466843
vt 0.269633 0.467022
vt 0.147724 0.255867
vt 0.771559 0.238215
vt 0.683807 0.239636
vt 0.638230 0.314921
vt 0.685553 0.387183
vt 0.639324 0.467255
vt 0.632920 0.466417
vt 0.814439 0.314921
vt 0.768993 0.387183
vt 0.638230 0.314921
vt 0.824111 0.314921
vt 0.837140 0.336136
vt 0.841346 0.432260
vt 0.821065 0.467389
vt 0.815222 0.467255
vt 0.867774 0.243358
vt 0.457990 0.466417
vt 0.451348 0.466843
vt 0.072850 0.333527
vt 0.591226 0.336136
s 0
f 1/1/1 2/2/1 3/3/1
f 2/2/2 1/4/2 6/5/2
f 1/6/3 3/7/3 4/8/3
f 1/9/4 4/8/4 5/10/4
f 1/11/5 5/10/5 6/5/5
f 2/2/6 6/5/6 8/12/6
f 2/2/7 8/12/7 11/13/7 10/14/7
f 3/3/8 9/15/8 13/16/8 21/17/8 20/18/8
f 4/8/9 3/7/9 20/19/9 19/20/9
f 6/5/10 5/10/10 7/21/10
f 33/22/11 35/23/11 21/24/11 13/25/11 12/26/11 27/27/11 26/28/11
f 12/29/12 11/30/12 8/12/12 23/31/12 27/32/12
f 6/5/13 7/21/13 8/12/13
f 3/3/14 2/2/14 10/14/14 9/33/14
f 5/10/15 4/8/15 15/34/15 14/35/15
f 7/21/16 18/36/16 17/37/16 25/38/16 24/39/16
f 9/15/17 10/14/17 11/13/17 12/29/17 13/25/17
f 14/35/18 15/34/18 16/40/18 17/41/18 18/36/18
f 5/10/19 14/35/19 18/42/19 7/21/19
f 17/41/20 16/40/20 22/43/20 34/44/20 33/45/20 26/46/20 25/47/20
f 4/8/21 19/48/21 22/43/21 16/40/21 15/34/21
f 25/47/22 26/46/22 32/46/22 31/47/22
f 8/12/23 7/21/23 24/49/23 23/50/23
f 29/31/24 30/49/24 31/38/24 32/46/24 28/27/24
f 23/50/25 24/49/25 30/49/25 29/50/25
f 26/28/26 27/27/26 28/27/26 32/28/26
f 24/39/27 25/38/27 31/38/27 30/39/27
f 27/32/28 23/31/28 29/31/28 28/32/28
f 33/22/29 34/44/29 35/51/29
f 19/48/30 20/19/30 21/17/30 35/51/30 34/52/30 22/43/30
