# Blender 4.0.2
# www.blender.org
mtllib trash_bucket_hat1.mtl
o trash_bin_header
v 0.208262 1.404833 2.083732
v 0.329346 1.404833 2.142043
v 0.359251 1.404833 2.273066
v 0.275459 1.404833 2.378139
v 0.141066 1.404833 2.378139
v 0.057274 1.404833 2.273066
v 0.087179 1.404833 2.142043
v 0.323912 1.431257 2.146377
v 0.208262 1.431257 2.090683
v 0.352475 1.431257 2.271520
v 0.272443 1.431257 2.371876
v 0.144082 1.431257 2.371876
v 0.064050 1.431257 2.271520
v 0.092613 1.431257 2.146377
v 0.208262 1.405640 2.080843
v 0.331605 1.405640 2.140242
v 0.362068 1.405640 2.273709
v 0.276712 1.405640 2.380742
v 0.139812 1.405640 2.380742
v 0.054457 1.405640 2.273709
v 0.084920 1.405640 2.140242
v 0.325537 1.433419 2.145081
v 0.208262 1.433419 2.088604
v 0.354502 1.433419 2.271982
v 0.273345 1.433419 2.373749
v 0.143180 1.433419 2.373749
v 0.062023 1.433419 2.271982
v 0.090988 1.433419 2.145081
vn 0.9486 0.2306 -0.2165
vn -0.0000 1.0000 -0.0000
vn -0.7608 0.2306 0.6067
vn 0.4222 0.2306 -0.8767
vn 0.7608 0.2306 0.6067
vn -0.9486 0.2306 -0.2165
vn -0.0000 0.2306 0.9730
vn -0.4222 0.2306 -0.8767
vn -0.9454 -0.2441 0.2158
vn -0.0000 -1.0000 -0.0000
vn 0.7582 -0.2441 -0.6046
vn -0.4208 -0.2441 0.8737
vn -0.7582 -0.2441 -0.6046
vn 0.9454 -0.2441 0.2158
vn -0.0000 -0.2441 -0.9697
vn 0.4208 -0.2441 0.8737
vn -0.1285 0.9551 0.2669
vn -0.2888 0.9551 0.0659
vn -0.2316 0.9551 -0.1847
vn -0.0000 0.9551 -0.2962
vn 0.2316 0.9551 -0.1847
vn 0.2888 0.9551 0.0659
vn 0.1285 0.9551 0.2669
vt 0.714286 1.000000
vt 0.857143 1.000000
vt 0.437640 0.399638
vt 0.250000 0.490000
vt 0.062360 0.399638
vt 0.016017 0.196595
vt 0.145868 0.033767
vt 0.354132 0.033767
vt 0.483983 0.196595
vt 0.285714 1.000000
vt 0.428571 1.000000
vt 1.000000 1.000000
vt 0.571429 1.000000
vt 0.142857 1.000000
vt 0.000000 1.000000
s 0
f 3/1/1 2/2/1 8/2/1 10/1/1
f 8/3/2 9/4/2 14/5/2 13/6/2 12/7/2 11/8/2 10/9/2
f 6/10/3 5/11/3 12/11/3 13/10/3
f 2/2/4 1/12/4 9/12/4 8/2/4
f 4/13/5 3/1/5 10/1/5 11/13/5
f 7/14/6 6/10/6 13/10/6 14/14/6
f 5/11/7 4/13/7 11/13/7 12/11/7
f 1/15/8 7/14/8 14/14/8 9/15/8
f 17/1/9 24/1/9 22/2/9 16/2/9
f 22/3/10 24/9/10 25/8/10 26/7/10 27/6/10 28/5/10 23/4/10
f 20/10/11 27/10/11 26/11/11 19/11/11
f 16/2/12 22/2/12 23/12/12 15/12/12
f 18/13/13 25/13/13 24/1/13 17/1/13
f 21/14/14 28/14/14 27/10/14 20/10/14
f 19/11/15 26/11/15 25/13/15 18/13/15
f 15/15/16 23/15/16 28/14/16 21/14/16
f 1/12/17 2/2/17 16/2/17 15/12/17
f 2/2/18 3/1/18 17/1/18 16/2/18
f 3/1/19 4/13/19 18/13/19 17/1/19
f 4/13/20 5/11/20 19/11/20 18/13/20
f 5/11/21 6/10/21 20/10/21 19/11/21
f 6/10/22 7/14/22 21/14/22 20/10/22
f 7/14/23 1/15/23 15/15/23 21/14/23
