# Blender 4.0.2
# www.blender.org
mtllib tree_medium_solid1.mtl
o Cylinder.027
v -3.430741 3.774912 -5.276206
v -3.433070 3.817766 -5.225051
v -3.327761 3.718337 -5.242541
v -3.352175 3.795054 -5.158385
v -3.308882 3.667822 -5.147441
v -3.364334 3.749229 -5.101857
v -3.442512 3.619339 -5.141860
v -3.427471 3.727277 -5.067527
v -3.515564 3.634776 -5.187613
v -3.499028 3.754035 -5.100976
v -3.498437 3.730356 -5.228181
v -3.496463 3.818950 -5.160723
v -3.431354 3.991963 -4.946271
v -3.521906 4.023758 -4.955707
v -3.446071 3.958309 -4.861214
v -3.478135 3.946612 -4.873003
v -3.555093 3.978426 -4.890965
v -3.534808 4.012160 -4.935485
v -3.336279 4.380009 -4.827866
v -3.408385 4.426568 -4.851373
v -3.317984 4.351017 -4.778461
v -3.393840 4.350619 -4.717220
v -3.450942 4.364657 -4.759423
v -3.467018 4.391439 -4.814114
v -3.434748 4.607217 -4.527975
v -3.444453 4.605163 -4.562614
v -3.401196 4.564874 -4.511850
v -3.497335 4.556210 -4.488432
v -3.545441 4.569943 -4.495320
v -3.517285 4.598405 -4.575839
v -3.444906 4.840151 -4.326771
v -3.301180 -0.043571 -5.644314
v -3.309288 0.229747 -5.577615
v -2.962188 -0.030157 -5.440261
v -3.103214 0.311137 -5.386922
v -3.028209 -0.036274 -5.171798
v -3.092154 0.273869 -5.135854
v -3.308766 -0.049605 -4.977290
v -3.328803 0.313058 -5.143048
v -3.603978 -0.056583 -5.172526
v -3.522646 0.214547 -5.210942
v -3.637766 -0.042715 -5.469800
v -3.440756 0.247096 -5.429543
v -3.247391 1.536685 -5.105058
v -3.474158 1.539200 -5.184003
v -3.293261 1.440716 -4.869052
v -3.552381 1.555481 -4.805589
v -3.738011 1.500625 -4.911512
v -3.656617 1.486984 -5.142559
v -2.984757 2.678749 -5.368750
v -3.232342 2.635453 -5.398814
v -2.991459 2.709138 -5.172852
v -3.213974 2.578674 -5.019278
v -3.362586 2.721991 -5.141681
v -3.393775 2.596038 -5.285497
v -3.337656 3.725658 -5.270849
v -3.429987 3.762516 -5.275213
v -3.278916 3.798890 -5.092805
v -3.419478 3.776742 -5.131910
v -3.565500 3.804718 -5.150488
v -3.479909 3.818363 -5.303230
v -3.302473 4.957525 -5.450042
v -3.230493 2.764898 -5.319561
v -3.332316 2.855598 -5.506481
v -3.117388 2.806616 -5.297749
v -3.227173 2.919164 -5.428401
v -3.221645 2.914664 -5.277598
v -3.238896 2.980600 -5.399996
v -3.348027 2.955079 -5.244556
v -3.329440 3.033019 -5.374317
v -3.390941 2.942643 -5.267689
v -3.415219 2.954676 -5.364190
v -3.326585 2.784271 -5.316232
v -3.433839 2.919904 -5.445445
v -3.328618 3.029992 -5.767220
v -3.413973 2.985768 -5.819373
v -3.353497 3.133792 -5.731324
v -3.409197 3.172303 -5.714813
v -3.525801 3.116602 -5.698450
v -3.524507 3.063124 -5.781775
v -3.180952 3.419815 -6.112668
v -3.253876 3.394511 -6.159967
v -3.185874 3.497703 -6.043313
v -3.313343 3.542162 -6.014639
v -3.332811 3.539788 -6.043903
v -3.333079 3.443522 -6.161981
v -3.307069 3.662953 -6.593438
v -3.382244 3.648877 -6.608619
v -3.351727 3.727201 -6.568946
v -3.400525 3.762919 -6.511138
v -3.441153 3.709581 -6.510382
v -3.413254 3.671866 -6.576947
v -3.318377 4.250897 -7.235336
vn 0.5560 0.6743 -0.4860
vn 0.9286 0.3305 0.1688
vn 0.3303 -0.4537 0.8277
vn -0.5267 -0.4415 0.7264
vn -0.4646 -0.6550 0.5959
vn -0.9940 0.1067 -0.0245
vn -0.6514 0.5073 -0.5642
vn -0.9779 0.1942 0.0770
vn 0.9635 0.1094 0.2443
vn -0.9770 0.0011 -0.2130
vn 0.4510 0.7556 -0.4749
vn 0.3788 -0.5993 0.7052
vn -0.6823 0.4732 -0.5574
vn -0.3410 0.7312 -0.5908
vn 0.4216 -0.3614 0.8317
vn 0.2821 0.1904 -0.9403
vn -0.7141 0.3418 -0.6109
vn -0.4583 -0.2052 0.8648
vn 0.9612 -0.2394 -0.1371
vn -0.8888 0.4298 -0.1589
vn -0.4245 -0.7720 0.4730
vn 0.8528 0.5078 -0.1219
vn -0.9758 -0.1578 -0.1517
vn 0.3672 -0.6370 0.6778
vn 0.6247 0.7023 -0.3414
vn 0.2465 -0.5135 0.8219
vn 0.9208 0.2772 -0.2744
vn 0.0623 0.7071 -0.7044
vn -0.2499 -0.4438 0.8606
vn 0.7717 0.4347 -0.4643
vn 0.5293 0.2845 -0.7993
vn 0.9513 0.2823 0.1242
vn 0.3419 0.2190 0.9139
vn -0.5015 0.3088 0.8082
vn -0.3030 -0.2819 0.9103
vn -0.8949 0.4442 -0.0435
vn -0.5278 0.3260 -0.7843
vn 0.0264 -0.9995 -0.0154
vn -0.9507 0.2265 -0.2117
vn 0.9875 0.1189 0.1031
vn -0.9358 -0.0801 -0.3432
vn 0.4702 0.2803 -0.8368
vn 0.0366 -0.2370 0.9708
vn -0.5231 0.1460 -0.8397
vn -0.3745 -0.0035 -0.9272
vn 0.4066 0.0917 0.9090
vn 0.2373 -0.2539 -0.9377
vn -0.3969 -0.0578 -0.9161
vn -0.4774 0.3141 0.8206
vn 0.9743 -0.2076 0.0871
vn -0.8728 0.0738 -0.4825
vn -0.4467 -0.0324 0.8941
vn 0.9312 0.2967 -0.2118
vn -0.9832 -0.1248 -0.1331
vn 0.2721 0.0723 0.9595
vn 0.0976 0.1253 -0.9873
vn -0.2977 0.2757 0.9140
vn -0.0106 -0.1436 -0.9896
vn 0.3297 -0.1710 -0.9285
vn -0.0713 0.2661 0.9613
vn 0.9555 -0.0690 -0.2868
vn 0.5471 -0.4904 -0.6784
vn 0.8234 0.5673 -0.0133
vn 0.4514 0.7740 0.4440
vn -0.5679 0.7598 0.3164
vn -0.4451 0.7642 0.4667
vn -0.8843 -0.3860 0.2628
vn -0.4533 -0.8390 -0.3009
vn -0.9420 0.2670 -0.2033
vn 0.9399 0.2828 -0.1916
vn -0.9609 -0.1889 0.2024
vn 0.6467 -0.6382 -0.4177
vn 0.5574 0.8081 0.1905
vn -0.6008 -0.7813 -0.1695
vn -0.5769 -0.7644 -0.2880
vn 0.4120 0.4917 0.7671
vn 0.5891 -0.6451 -0.4866
vn -0.4592 -0.4788 -0.7482
vn -0.3465 0.6647 0.6619
vn 0.9262 -0.0633 0.3716
vn -0.9394 -0.1787 -0.2925
vn -0.7192 0.5806 0.3815
vn 0.9208 0.3798 -0.0888
vn -0.9531 -0.2943 0.0709
vn 0.4980 0.8323 0.2434
vn 0.4165 -0.7492 -0.5151
vn 0.7995 0.4522 0.3954
vn 0.2648 -0.7088 -0.6539
vn -0.7827 -0.4071 -0.4708
vn -0.7555 0.5798 0.3050
vn 0.8217 0.4274 0.3770
vt 1.000000 0.500000
vt 1.000000 1.000000
vt 0.833333 1.000000
vt 0.833333 0.500000
vt 0.666667 1.000000
vt 0.666667 0.500000
vt 0.500000 1.000000
vt 0.500000 0.500000
vt 0.333333 1.000000
vt 0.333333 0.500000
vt 0.166667 1.000000
vt 0.166667 0.500000
vt -0.000000 1.000000
vt -0.000000 0.500000
vt 0.750000 0.490000
vt 0.957846 0.370000
vt 0.957846 0.130000
vt 0.750000 0.010000
vt 0.542154 0.130000
vt 0.542154 0.370000
s 0
f 1/1/1 2/2/1 4/3/1 3/4/1
f 3/4/2 4/3/2 6/5/2 5/6/2
f 5/6/3 6/5/3 8/7/3 7/8/3
f 7/8/4 8/7/4 10/9/4 9/10/4
f 10/9/5 8/7/5 16/7/5 17/9/5
f 9/10/6 10/9/6 12/11/6 11/12/6
f 11/12/7 12/11/7 2/13/7 1/14/7
f 18/11/8 17/9/8 23/9/8 24/11/8
f 6/5/9 4/3/9 13/3/9 15/5/9
f 12/11/10 10/9/10 17/9/10 18/11/10
f 4/3/11 2/2/11 14/2/11 13/3/11
f 8/7/12 6/5/12 15/5/12 16/7/12
f 2/13/13 12/11/13 18/11/13 14/13/13
f 20/13/14 24/11/14 30/11/14 26/13/14
f 16/7/15 15/5/15 21/5/15 22/7/15
f 13/3/16 14/2/16 20/2/16 19/3/16
f 14/13/17 18/11/17 24/11/17 20/13/17
f 17/9/18 16/7/18 22/7/18 23/9/18
f 15/5/19 13/3/19 19/3/19 21/5/19
f 30/11/20 29/9/20 31/11/20
f 23/9/21 22/7/21 28/7/21 29/9/21
f 21/5/22 19/3/22 25/3/22 27/5/22
f 24/11/23 23/9/23 29/9/23 30/11/23
f 22/7/24 21/5/24 27/5/24 28/7/24
f 19/3/25 20/2/25 26/2/25 25/3/25
f 28/7/26 27/5/26 31/7/26
f 25/3/27 26/2/27 31/3/27
f 26/13/28 30/11/28 31/13/28
f 29/9/29 28/7/29 31/9/29
f 27/5/30 25/3/30 31/5/30
f 32/1/31 33/2/31 35/3/31 34/4/31
f 34/4/32 35/3/32 37/5/32 36/6/32
f 36/6/33 37/5/33 39/7/33 38/8/33
f 38/8/34 39/7/34 41/9/34 40/10/34
f 41/9/35 39/7/35 47/7/35 48/9/35
f 40/10/36 41/9/36 43/11/36 42/12/36
f 42/12/37 43/11/37 33/13/37 32/14/37
f 32/15/38 34/16/38 36/17/38 38/18/38 40/19/38 42/20/38
f 49/11/39 48/9/39 54/9/39 55/11/39
f 37/5/40 35/3/40 44/3/40 46/5/40
f 43/11/41 41/9/41 48/9/41 49/11/41
f 35/3/42 33/2/42 45/2/42 44/3/42
f 39/7/43 37/5/43 46/5/43 47/7/43
f 33/13/44 43/11/44 49/11/44 45/13/44
f 51/13/45 55/11/45 61/11/45 57/13/45
f 47/7/46 46/5/46 52/5/46 53/7/46
f 44/3/47 45/2/47 51/2/47 50/3/47
f 45/13/48 49/11/48 55/11/48 51/13/48
f 48/9/49 47/7/49 53/7/49 54/9/49
f 46/5/50 44/3/50 50/3/50 52/5/50
f 61/11/51 60/9/51 62/11/51
f 54/9/52 53/7/52 59/7/52 60/9/52
f 52/5/53 50/3/53 56/3/53 58/5/53
f 55/11/54 54/9/54 60/9/54 61/11/54
f 53/7/55 52/5/55 58/5/55 59/7/55
f 50/3/56 51/2/56 57/2/56 56/3/56
f 59/7/57 58/5/57 62/7/57
f 56/3/58 57/2/58 62/3/58
f 57/13/59 61/11/59 62/13/59
f 60/9/60 59/7/60 62/9/60
f 58/5/61 56/3/61 62/5/61
f 63/1/62 64/2/62 66/3/62 65/4/62
f 65/4/63 66/3/63 68/5/63 67/6/63
f 67/6/64 68/5/64 70/7/64 69/8/64
f 69/8/65 70/7/65 72/9/65 71/10/65
f 72/9/66 70/7/66 78/7/66 79/9/66
f 71/10/67 72/9/67 74/11/67 73/12/67
f 73/12/68 74/11/68 64/13/68 63/14/68
f 80/11/69 79/9/69 85/9/69 86/11/69
f 68/5/70 66/3/70 75/3/70 77/5/70
f 74/11/71 72/9/71 79/9/71 80/11/71
f 66/3/72 64/2/72 76/2/72 75/3/72
f 70/7/73 68/5/73 77/5/73 78/7/73
f 64/13/74 74/11/74 80/11/74 76/13/74
f 82/13/75 86/11/75 92/11/75 88/13/75
f 78/7/76 77/5/76 83/5/76 84/7/76
f 75/3/77 76/2/77 82/2/77 81/3/77
f 76/13/78 80/11/78 86/11/78 82/13/78
f 79/9/79 78/7/79 84/7/79 85/9/79
f 77/5/80 75/3/80 81/3/80 83/5/80
f 92/11/81 91/9/81 93/11/81
f 85/9/82 84/7/82 90/7/82 91/9/82
f 83/5/83 81/3/83 87/3/83 89/5/83
f 86/11/84 85/9/84 91/9/84 92/11/84
f 84/7/85 83/5/85 89/5/85 90/7/85
f 81/3/86 82/2/86 88/2/86 87/3/86
f 90/7/87 89/5/87 93/7/87
f 87/3/88 88/2/88 93/3/88
f 88/13/89 92/11/89 93/13/89
f 91/9/90 90/7/90 93/9/90
f 89/5/91 87/3/91 93/5/91
