# Blender 4.0.2
# www.blender.org
mtllib tree_small_solid1.mtl
o Cylinder.028
v -3.330332 1.524070 -7.188732
v -3.369978 1.583590 -7.237731
v -3.270887 1.568671 -7.191458
v -3.295186 1.566884 -7.274159
v -3.233187 1.658890 -7.193525
v -3.284714 1.646525 -7.254207
v -3.297093 1.684223 -7.163418
v -3.319590 1.683811 -7.229735
v -3.371932 1.650889 -7.138530
v -3.387931 1.667588 -7.204801
v -3.380165 1.584234 -7.147404
v -3.388661 1.600874 -7.218453
v -3.413354 1.577691 -7.420738
v -3.496560 1.558102 -7.410012
v -3.426969 1.653962 -7.416737
v -3.473711 1.672118 -7.370784
v -3.511292 1.663006 -7.367673
v -3.523035 1.609231 -7.374349
v -3.464145 1.669520 -7.728630
v -3.520512 1.672269 -7.724684
v -3.474116 1.744856 -7.706406
v -3.490258 1.776051 -7.719686
v -3.546235 1.765995 -7.663260
v -3.559726 1.694413 -7.684352
v -3.650325 1.702016 -7.980076
v -3.679946 1.724738 -7.950600
v -3.638119 1.748375 -7.966078
v -3.671767 1.778169 -7.947247
v -3.705555 1.774994 -7.918820
v -3.705564 1.738456 -7.945792
v -3.856175 1.867774 -8.439719
v -3.308805 0.020339 -7.441803
v -3.303287 0.150701 -7.358103
v -3.147720 0.006631 -7.338552
v -3.216772 0.143274 -7.315884
v -3.158872 0.010581 -7.150938
v -3.201748 0.140145 -7.197186
v -3.302436 0.003812 -7.066976
v -3.306800 0.138167 -7.134408
v -3.466838 0.010422 -7.152637
v -3.406952 0.154739 -7.168581
v -3.463313 0.012565 -7.335496
v -3.396907 0.141340 -7.280304
v -3.308972 0.843959 -7.113992
v -3.399564 0.816784 -7.185895
v -3.303549 0.826752 -7.015701
v -3.401450 0.826841 -6.960464
v -3.500674 0.828113 -7.014893
v -3.495444 0.825885 -7.134448
v -3.139505 1.433587 -7.265845
v -3.246546 1.443795 -7.313221
v -3.155505 1.456295 -7.165132
v -3.246989 1.422568 -7.126296
v -3.320753 1.463795 -7.167011
v -3.335536 1.447503 -7.270044
v -3.301509 2.045855 -7.227282
v -3.372077 2.048829 -7.265079
v -3.286428 2.043961 -7.130458
v -3.359334 2.046697 -7.114049
v -3.442715 2.057553 -7.164587
v -3.424972 2.043554 -7.236011
v -3.306183 2.707492 -7.349683
v -3.391873 0.985604 -7.099923
v -3.359586 1.003229 -7.078621
v -3.334411 0.946398 -7.127723
v -3.316020 0.985257 -7.107510
v -3.304073 0.916123 -7.119299
v -3.300318 0.965248 -7.082838
v -3.301827 0.903622 -7.060215
v -3.294605 0.942529 -7.045361
v -3.363418 0.907487 -7.017993
v -3.323043 0.943947 -7.032063
v -3.401765 0.953283 -7.049212
v -3.361790 0.986191 -7.048801
v -3.220940 1.111921 -7.002402
v -3.251559 1.114852 -6.972333
v -3.198621 1.085829 -6.984954
v -3.215534 1.078550 -6.938730
v -3.237167 1.085499 -6.924386
v -3.261392 1.101138 -6.945659
v -3.110119 1.317757 -6.997664
v -3.140905 1.329583 -6.975144
v -3.077085 1.290478 -6.996607
v -3.089307 1.282289 -6.937199
v -3.119790 1.295242 -6.935142
v -3.149483 1.309197 -6.942084
v -3.001148 1.417962 -6.864939
v -3.023031 1.423357 -6.850351
v -2.971102 1.396761 -6.851927
v -2.983195 1.383425 -6.826711
v -3.015358 1.398527 -6.807047
v -3.036169 1.409909 -6.819092
v -2.885415 1.539284 -6.779305
vn 0.0632 -0.9024 -0.4263
vn 0.8740 -0.2013 -0.4423
vn 0.3811 0.8711 -0.3098
vn -0.2607 0.9462 0.1919
vn -0.1983 0.9716 0.1290
vn -0.9824 0.0350 0.1837
vn -0.7778 -0.6229 -0.0833
vn -0.9734 0.1595 0.1647
vn 0.7631 0.1131 -0.6363
vn -0.7775 -0.0255 0.6283
vn 0.0260 -0.9993 0.0260
vn 0.3218 0.8887 -0.3266
vn -0.5280 -0.7157 0.4572
vn -0.4317 -0.8972 0.0928
vn 0.6592 0.7350 0.1585
vn 0.0800 -0.9434 -0.3218
vn -0.7952 -0.5958 -0.1129
vn -0.0005 0.9521 0.3057
vn 0.9793 0.1711 -0.1082
vn -0.9531 -0.1796 0.2436
vn -0.0749 0.9943 0.0757
vn 0.8206 0.1491 -0.5517
vn -0.8607 -0.1132 0.4964
vn 0.6648 0.5850 -0.4646
vn -0.2741 -0.9613 0.0274
vn 0.6294 0.7712 -0.0954
vn -0.6144 -0.7889 -0.0093
vn -0.4823 -0.8722 -0.0813
vn 0.0443 0.9857 0.1628
vn 0.8934 -0.1032 -0.4373
vn 0.4860 0.4208 -0.7660
vn 0.9222 0.3866 -0.0127
vn 0.4503 0.4200 0.7879
vn -0.3647 0.3328 0.8696
vn -0.4112 -0.2666 0.8717
vn -0.9029 0.4259 -0.0579
vn -0.5351 0.5096 -0.6738
vn -0.0097 -0.9996 -0.0281
vn -0.9641 0.2650 0.0193
vn 0.9842 0.1591 -0.0778
vn -0.9902 -0.1277 -0.0568
vn 0.4948 0.2922 -0.8184
vn 0.4981 -0.1496 0.8541
vn -0.5600 0.1125 -0.8208
vn -0.4535 -0.0202 -0.8910
vn 0.4232 0.1264 0.8972
vn 0.5097 -0.3185 -0.7992
vn -0.4584 -0.0717 -0.8859
vn -0.3920 0.3283 0.8594
vn 0.9695 -0.2381 0.0581
vn -0.9567 0.1262 -0.2624
vn -0.5264 -0.1114 0.8429
vn 0.9710 0.2383 -0.0206
vn -0.9844 -0.1753 0.0137
vn 0.3140 0.0263 0.9491
vn 0.4364 0.1661 -0.8843
vn 0.2197 0.3119 0.9243
vn 0.4610 -0.1583 -0.8732
vn -0.4756 -0.0651 -0.8773
vn -0.4572 0.3311 0.8254
vn 0.9878 -0.0216 -0.1543
vn -0.0742 0.6330 -0.7706
vn 0.7237 0.2357 -0.6487
vn 0.9925 -0.0627 -0.1047
vn 0.4848 -0.3147 0.8161
vn 0.2625 -0.6826 0.6821
vn -0.1571 0.3628 0.9185
vn -0.6052 0.7160 0.3479
vn -0.3589 0.2126 0.9088
vn 0.7306 -0.0211 -0.6825
vn -0.6220 -0.1755 0.7631
vn -0.2632 0.7560 -0.5993
vn 0.8432 -0.5320 -0.0778
vn -0.7934 0.5895 0.1518
vn -0.7126 0.6907 0.1227
vn 0.8459 -0.5092 0.1587
vn -0.5756 0.3066 -0.7581
vn -0.8849 0.4658 -0.0068
vn 0.2530 -0.1277 0.9590
vn 0.1998 -0.1295 -0.9712
vn -0.4067 0.1998 0.8914
vn -0.0830 -0.7194 0.6896
vn 0.5104 0.4517 -0.7317
vn -0.4947 -0.4131 0.7646
vn 0.6903 -0.7234 0.0143
vn -0.1052 0.8366 -0.5376
vn 0.8276 -0.5513 0.1053
vn -0.2607 0.7103 -0.6539
vn -0.6576 0.7519 0.0471
vn 0.3045 -0.4469 0.8412
vn 0.4807 0.1511 -0.8638
vt 1.000000 0.500000
vt 1.000000 1.000000
vt 0.833333 1.000000
vt 0.833333 0.500000
vt 0.666667 1.000000
vt 0.666667 0.500000
vt 0.500000 1.000000
vt 0.500000 0.500000
vt 0.333333 1.000000
vt 0.333333 0.500000
vt 0.166667 1.000000
vt 0.166667 0.500000
vt -0.000000 1.000000
vt -0.000000 0.500000
vt 0.750000 0.490000
vt 0.957846 0.370000
vt 0.957846 0.130000
vt 0.750000 0.010000
vt 0.542154 0.130000
vt 0.542154 0.370000
s 0
f 1/1/1 2/2/1 4/3/1 3/4/1
f 3/4/2 4/3/2 6/5/2 5/6/2
f 5/6/3 6/5/3 8/7/3 7/8/3
f 7/8/4 8/7/4 10/9/4 9/10/4
f 10/9/5 8/7/5 16/7/5 17/9/5
f 9/10/6 10/9/6 12/11/6 11/12/6
f 11/12/7 12/11/7 2/13/7 1/14/7
f 18/11/8 17/9/8 23/9/8 24/11/8
f 6/5/9 4/3/9 13/3/9 15/5/9
f 12/11/10 10/9/10 17/9/10 18/11/10
f 4/3/11 2/2/11 14/2/11 13/3/11
f 8/7/12 6/5/12 15/5/12 16/7/12
f 2/13/13 12/11/13 18/11/13 14/13/13
f 20/13/14 24/11/14 30/11/14 26/13/14
f 16/7/15 15/5/15 21/5/15 22/7/15
f 13/3/16 14/2/16 20/2/16 19/3/16
f 14/13/17 18/11/17 24/11/17 20/13/17
f 17/9/18 16/7/18 22/7/18 23/9/18
f 15/5/19 13/3/19 19/3/19 21/5/19
f 30/11/20 29/9/20 31/11/20
f 23/9/21 22/7/21 28/7/21 29/9/21
f 21/5/22 19/3/22 25/3/22 27/5/22
f 24/11/23 23/9/23 29/9/23 30/11/23
f 22/7/24 21/5/24 27/5/24 28/7/24
f 19/3/25 20/2/25 26/2/25 25/3/25
f 28/7/26 27/5/26 31/7/26
f 25/3/27 26/2/27 31/3/27
f 26/13/28 30/11/28 31/13/28
f 29/9/29 28/7/29 31/9/29
f 27/5/30 25/3/30 31/5/30
f 32/1/31 33/2/31 35/3/31 34/4/31
f 34/4/32 35/3/32 37/5/32 36/6/32
f 36/6/33 37/5/33 39/7/33 38/8/33
f 38/8/34 39/7/34 41/9/34 40/10/34
f 41/9/35 39/7/35 47/7/35 48/9/35
f 40/10/36 41/9/36 43/11/36 42/12/36
f 42/12/37 43/11/37 33/13/37 32/14/37
f 32/15/38 34/16/38 36/17/38 38/18/38 40/19/38 42/20/38
f 49/11/39 48/9/39 54/9/39 55/11/39
f 37/5/40 35/3/40 44/3/40 46/5/40
f 43/11/41 41/9/41 48/9/41 49/11/41
f 35/3/42 33/2/42 45/2/42 44/3/42
f 39/7/43 37/5/43 46/5/43 47/7/43
f 33/13/44 43/11/44 49/11/44 45/13/44
f 51/13/45 55/11/45 61/11/45 57/13/45
f 47/7/46 46/5/46 52/5/46 53/7/46
f 44/3/47 45/2/47 51/2/47 50/3/47
f 45/13/48 49/11/48 55/11/48 51/13/48
f 48/9/49 47/7/49 53/7/49 54/9/49
f 46/5/50 44/3/50 50/3/50 52/5/50
f 61/11/51 60/9/51 62/11/51
f 54/9/52 53/7/52 59/7/52 60/9/52
f 52/5/53 50/3/53 56/3/53 58/5/53
f 55/11/54 54/9/54 60/9/54 61/11/54
f 53/7/55 52/5/55 58/5/55 59/7/55
f 50/3/56 51/2/56 57/2/56 56/3/56
f 59/7/57 58/5/57 62/7/57
f 56/3/58 57/2/58 62/3/58
f 57/13/59 61/11/59 62/13/59
f 60/9/60 59/7/60 62/9/60
f 58/5/61 56/3/61 62/5/61
f 63/1/62 64/2/62 66/3/62 65/4/62
f 65/4/63 66/3/63 68/5/63 67/6/63
f 67/6/64 68/5/64 70/7/64 69/8/64
f 69/8/65 70/7/65 72/9/65 71/10/65
f 72/9/66 70/7/66 78/7/66 79/9/66
f 71/10/67 72/9/67 74/11/67 73/12/67
f 73/12/68 74/11/68 64/13/68 63/14/68
f 80/11/69 79/9/69 85/9/69 86/11/69
f 68/5/70 66/3/70 75/3/70 77/5/70
f 74/11/71 72/9/71 79/9/71 80/11/71
f 66/3/72 64/2/72 76/2/72 75/3/72
f 70/7/73 68/5/73 77/5/73 78/7/73
f 64/13/74 74/11/74 80/11/74 76/13/74
f 82/13/75 86/11/75 92/11/75 88/13/75
f 78/7/76 77/5/76 83/5/76 84/7/76
f 75/3/77 76/2/77 82/2/77 81/3/77
f 76/13/78 80/11/78 86/11/78 82/13/78
f 79/9/79 78/7/79 84/7/79 85/9/79
f 77/5/80 75/3/80 81/3/80 83/5/80
f 92/11/81 91/9/81 93/11/81
f 85/9/82 84/7/82 90/7/82 91/9/82
f 83/5/83 81/3/83 87/3/83 89/5/83
f 86/11/84 85/9/84 91/9/84 92/11/84
f 84/7/85 83/5/85 89/5/85 90/7/85
f 81/3/86 82/2/86 88/2/86 87/3/86
f 90/7/87 89/5/87 93/7/87
f 87/3/88 88/2/88 93/3/88
f 88/13/89 92/11/89 93/13/89
f 91/9/90 90/7/90 93/9/90
f 89/5/91 87/3/91 93/5/91
